<?xml version="1.0" encoding="iso-8859-1"?>
<!-- Generator: Adobe Illustrator 16.0.4, SVG Export Plug-In . SVG Version: 6.00 Build 0)  -->
<!DOCTYPE svg PUBLIC "-//W3C//DTD SVG 1.1//EN" "http://www.w3.org/Graphics/SVG/1.1/DTD/svg11.dtd">
<svg version="1.1" id="Layer_1" xmlns="http://www.w3.org/2000/svg" xmlns:xlink="http://www.w3.org/1999/xlink" x="0px" y="0px"
	 width="7000px" height="10000px" viewBox="0 0 1439.82 899.888" style="enable-background:new 0 0 1439.82 899.888;background:#000"
	 xml:space="preserve">
<g>
	<path d="M1439.82,899.888c-479.94,0-959.88,0-1439.82,0C0,599.925,0,299.962,0,0c479.94,0,959.88,0,1439.82,0
		C1439.82,299.962,1439.82,599.925,1439.82,899.888z M625.88,84.703c1.572,9.844-1.658,14.556-10.931,16.825
		c-3.529,0.863-7.226,1.844-10.269,3.711c-6.053,3.713-12.59,5.06-19.459,5.581c-5.474,0.415-10.953,0.788-16.419,1.298
		c-6.297,0.587-12.605,1.14-18.865,2.016c-4.922,0.69-6.511,4.315-3.511,7.706c2.41,2.725,4.988,5.344,7.784,7.659
		c1.139,0.943,3.19,1.59,4.583,1.28c6.107-1.362,12.154-3.027,18.166-4.773c4.079-1.185,8.063-4.041,12.34-1.185
		c3.013,2.012,5.769,1.817,8.95,0.682c2.314-0.826,4.835-1.325,7.292-1.455c6.548-0.348,7.414,0.699,9.461,6.984
		c1.316,4.04,3.325,7.909,5.444,11.615c1.946,3.401,4.946,3.861,8.629,2.289c3.327-1.42,6.861-2.6,10.417-3.131
		c1.771-0.264,4.815,0.601,5.532,1.913c3.953,7.223,7.933,14.532,10.776,22.229c2.139,5.792,4.156,8.941,10.315,8.879
		c4.747-0.049,9.504-1.123,14.206-2.012c1.133-0.214,2.349-1.305,3.045-2.322c5.156-7.532,8.297-8.069,16.363-3.814
		c2.71,1.43,6.666,2.479,9.341,1.583c5.574-1.869,10.696-5.11,15.963-7.864c4.438-2.321,4.275-6.471,3.657-10.483
		c-0.611-3.969-3.924-3.937-7.007-3.955c-3.165-0.019-6.366,0.25-9.49-0.125c-7.313-0.876-15.318,0.01-20.667-6.751
		c-1.637-2.068-4.325-4.973-3.804-6.646c0.614-1.976,4.125-3.14,6.49-4.459c4.135-2.306,8.932-3.801,12.404-6.834
		c5.29-4.62,12.569-5.686,18.162-1.349c1.307,1.013,2.547,2.158,3.979,2.951c6.67,3.695,7.154,5.942,3.754,12.665
		c-1.031,2.037-0.408,4.911-0.543,7.4c2.353,0.041,4.732,0.334,7.049,0.065c3.688-0.427,7.359-1.888,10.988-1.736
		c8.496,0.357,16.822,1.103,21.153-8.586c0.304-0.68,1.196-1.142,1.887-1.597c4.221-2.781,6.521-6.4,5.952-11.724
		c-0.453-4.239,2.018-6.681,6.057-7.055c3.792-0.352,7.646,0.031,11.454-0.202c2.272-0.139,4.891-0.243,6.697-1.395
		c7.823-4.988,15.463-10.275,23.034-15.645c1.855-1.316,3.321-3.257,4.755-5.077c4.854-6.158,7.28-6.521,11.788-0.278
		c6.104,8.454,11.455,8.518,21.403,4.901c4.979-1.81,10.175-3.17,15.385-4.105c2.022-0.363,4.604,0.579,6.487,1.683
		c2.768,1.625,2.853,3.711-0.059,5.789c-8.007,5.712-7.983,6.31-0.484,12.419c0.517,0.42,0.983,0.903,1.504,1.317
		c11.752,9.34,24.178,10.597,36.819,3.292c3.389-1.958,6.098-1.444,8.678,0.688c7.397,6.11,15.247,8.991,25.365,9.003
		c9.424,0.012,18.564,0.239,28.07-0.925c9.938-1.218,15.191-6.207,19.592-13.841c2.629-4.56,6.381-7.779,11.698-8.51
		c4.762-0.653,9.594-0.784,14.381-1.286c6.449-0.677,12.912-1.377,18.976-5.116c-2.771-2.083-5.69-3.318-8.58-4.616
		c-4.327-1.944-9.65-2.946-12.735-6.116c-5.882-6.042-12.174-11.094-19.916-14.253c-3.884-1.585-7.915-2.951-12.004-3.855
		c-5.316-1.177-10.809-1.559-16.126-2.729c-4.028-0.888-7.846-2.698-11.854-3.71c-10.276-2.595-20.557-5.212-30.926-7.385
		c-17.323-3.63-34.705-6.981-52.089-10.313c-4.817-0.924-6.553-3.625-4.657-8.222c0.646-1.568,1.47-3.064,2.534-5.256
		c-8.087,0-15.229-0.057-22.368,0.065c-1.015,0.018-2.417,0.635-2.955,1.436c-2.615,3.888-6.498,4.21-10.598,4.287
		c-6.954,0.129-13.905,0.373-20.859,0.513c-2.66,0.053-5.723,0.803-7.914-0.229c-8.773-4.13-18.158,0.821-27.367-2.906
		c-6.289-2.545-14.396-0.759-21.685-0.635c-13.139,0.225-26.278,0.524-39.409,1.036c-14.134,0.55-28.26,1.32-42.384,2.102
		c-28.068,1.553-56.143,3.006-84.191,4.875c-9.235,0.614-18.52,1.795-27.549,3.78c-8.855,1.945-17.396,5.301-26.113,7.904
		c-2.358,0.704-5.352,0.208-7.211,1.487c-9.042,6.225-19.917,7.855-29.84,8.201c-15.301,0.531-29.087,6.578-43.879,8.529
		c-9.297,1.228-18.321,4.583-27.439,7.087c-1.667,0.457-3.196,1.413-4.789,2.139c4.868,0.944,9.388,1.089,13.785,0.428
		c13.614-2.052,27.183-4.395,40.763-6.67c1.628-0.272,3.212-0.817,4.815-1.245c5.752-1.532,11.477-3.182,17.263-4.57
		c5.156-1.236,10.542-1.7,15.536-3.375c7.56-2.534,12.109,0.125,13.048,8.171c0.463,3.956,1.119,7.942,2.231,11.756
		c2.581,8.857,7.081,12.395,15.047,11.2c4.522-0.679,9.363-1.908,13.139-4.327c7.509-4.811,15.321-5.478,23.452-3.388
		c9.508,2.442,18.813,4.871,27.766-1.506C624.738,84.438,625.176,84.628,625.88,84.703z M801.271,513.911
		c0.994-0.796,1.806-1.108,1.942-1.606c2.277-8.302,5-16.533,6.518-24.979c1.267-7.049,4.402-10.903,11.771-11.267
		c3.49-0.172,6.995-0.024,10.492-0.096c6.129-0.124,7.207-0.999,7.932-7.096c0.466-3.924,2.378-6.494,6.078-7.718
		c2.527-0.836,5.091-1.566,7.646-2.317c3.318-0.975,5.071,0.565,5.788,3.685c0.596,2.589,0.836,5.327,1.874,7.724
		c0.574,1.328,2.46,2.089,3.756,3.106c0.366-1.761,1.331-3.648,0.987-5.258c-1.099-5.152-2.606-10.225-4.103-15.283
		c-1.125-3.808-1.484-8.456-3.933-11.131c-5.105-5.58-10.801-10.816-18.649-12.86c-7.291-1.898-9.869-1.523-12.734,5.471
		c-3.705,9.049-9.901,15.174-18.537,19.13c-4.817,2.208-10.698,3.115-14.416,6.475c-6.045,5.46-10.729,6.265-15.841-0.331
		c-1.769-2.283-4.364-4.71-4.582-7.243c-0.427-4.973,0.545-10.066,0.945-15.109c0.17-2.139,0.603-4.29,0.485-6.411
		c-0.229-4.174-2.341-6.093-6.823-5.943c-12.271,0.409-21.221,8.334-22.884,20.604c-1.272,9.39-2.874,18.741-3.879,28.158
		c-0.723,6.763-1.004,13.612-0.842,20.409c0.054,2.277,1.549,5.79,3.311,6.526c5.669,2.372,9.222,6.204,11.513,11.711
		c1.866,4.488,5.263,6.045,10.125,4.839c2.868-0.712,5.891-0.987,8.856-1.087c6.187-0.209,6.782-0.629,6.916-6.944
		c0.077-3.688,0.458-7.511,4.594-8.432c4.04-0.899,7.32,1.07,9.576,4.785C796.922,508.334,799.131,510.976,801.271,513.911z
		 M374.527,529.156c0.129,0.025,0.257,0.051,0.386,0.076c0,0.998,0.041,1.999-0.008,2.995c-0.173,3.533,0.964,5.742,5.009,5.775
		c4.019,0.032,5.378-2.085,5.073-5.657c-0.254-2.973-0.792-5.921-1.152-8.886c-0.779-6.418,0.287-11.291,6.324-15.831
		c4.849-3.647,8.158-10.155,10.494-16.049c1.598-4.03,0.495-9.192,0.335-13.839c-0.244-7.134,0.8-8.42,7.87-8.736
		c1.828-0.082,3.661-0.012,5.491-0.039c4.655-0.068,9.335,0.094,13.947-0.393c1.248-0.132,2.287-2.246,3.422-3.449
		c-1.104-1.03-2.211-2.956-3.309-2.95c-11.62,0.062-23.24,0.349-34.85,0.824c-1.363,0.057-3.19,1.306-3.905,2.527
		c-3.082,5.267-11.667,9.041-17.264,6.718c-2.047-0.849-4.088-2.945-5.023-4.982c-1.876-4.081-7.667-8.104-11.972-6.944
		c-1.62,0.437-3.88,2.177-4.086,3.581c-1.395,9.499-2.314,19.068-3.391,28.614c-0.534,4.736,1.857,6.763,6.28,7.909
		c4.033,1.046,7.84,3.042,11.657,4.813c2.096,0.973,3.898,2.608,6.021,3.482c4.318,1.773,5.577,4.88,4.743,9.206
		C375.896,521.662,375.223,525.412,374.527,529.156z M793.86,288.38c-3.475,0.924-8.345,1.585-12.635,3.525
		c-4.934,2.229-9.26,5.759-14.021,8.416c-6.228,3.475-10.91,13.802-9.781,20.859c0.441,2.762-0.545,5.788-1.068,8.659
		c-0.383,2.093-1.403,4.106-1.544,6.195c-0.174,2.584-0.495,5.538,3.954,5.074c3.989-0.416,5.951-2.096,5.028-6.099
		c-0.436-1.893-1.414-3.708-2.396-5.416c-1.731-3.014-2.245-5.889,0.177-8.773c2.952-3.515,4.389-8.974,10.921-7.666
		c3.049,0.61,6.267,0.569,9.401,0.503c6.104-0.127,12.218-0.303,18.298-0.813c3.049-0.256,6.273-0.788,8.985-2.093
		c3.701-1.779,7.019-3.857,11.209-1.438c0.633,0.365,2.172,0.099,2.625-0.439c0.419-0.497,0.287-2.01-0.186-2.629
		C815.784,297.021,807.379,289.882,793.86,288.38z M770.388,550.78c0.508-0.102,1.016-0.203,1.523-0.305
		c-0.754-1.814-1.472-3.646-2.269-5.441c-5.035-11.351-15.894-12.439-26.074-14.55c-0.652-0.135-2.006,1.664-2.562,2.796
		c-1.478,3.008-2.402,6.318-4.091,9.188c-2.353,3.999-3.169,9.752-0.568,11.58c3.188,2.242,6.716,4.289,10.4,5.479
		c7.015,2.266,11.18,7.058,14.288,13.383c1.057,2.148,3.079,3.823,4.661,5.715c1.927-1.835,4.551-3.348,5.584-5.592
		c1.028-2.233,0.702-5.217,0.534-7.844C771.508,560.376,770.881,555.583,770.388,550.78z M860.867,511.655
		c1.037,5.86,0.517,12.287,7.247,14.945c3.058,1.209,6.348,1.966,9.603,2.485c1.595,0.255,4.114,0.049,4.83-0.945
		c0.784-1.09,0.257-3.407-0.199-5.052c-1.581-5.696-3.115-11.431-5.166-16.965c-2.165-5.84-4.697-11.569-7.48-17.141
		c-1.24-2.481-3.638-2.093-4.268,0.548C863.671,496.922,862.33,504.414,860.867,511.655z M737.6,611.807
		c3.732-1.043,6.741-1.847,9.727-2.727c6.756-1.991,12.124-11.863,8.82-17.611c-2.583-4.495-6.278-8.576-10.207-12.009
		c-3.978-3.479-7.245-1.989-7.846,3.202c-0.914,7.915-1.511,15.874-1.963,23.83C736.03,608.254,737.094,610.083,737.6,611.807z
		 M729.982,647.272c0.288,0.59,0.596,2.365,1.44,2.675c1.153,0.423,3.422,0.223,3.976-0.572c2.032-2.917,3.96-6.047,5.146-9.373
		c1.052-2.952,2.326-4.467,5.532-5.408c2.9-0.853,5.547-3.22,7.74-5.469c0.767-0.786,0.431-3.695-0.455-4.756
		c-0.929-1.114-3.557-2.077-4.686-1.534c-4.501,2.167-9.588,3.96-10.015,10.406c-0.105,1.594-1.709,4.109-3.04,4.42
		C730.491,638.858,730.828,642.919,729.982,647.272z M577.021,860.229c-4.833-0.047-8.264,3.28-8.198,7.954
		c0.062,4.344,3.487,7.659,7.976,7.72c4.639,0.062,8.556-3.473,8.52-7.689C585.279,863.664,581.756,860.274,577.021,860.229z
		 M525.948,116.32c-0.081-0.242-0.162-0.484-0.243-0.727c-1.559,0.715-3.846,1.06-4.457,2.258c-0.532,1.043,0.36,3.852,1.44,4.483
		c3.249,1.903,6.866,4.12,10.4,4.224c2.001,0.059,4.118-3.783,6.182-5.868c-1.981-1.262-3.819-2.967-5.982-3.665
		C531.003,116.29,528.408,116.516,525.948,116.32z M1271.132,892.883c4.345-1.166,7.396-1.984,10.426-2.798c0-2.579,0-5.147,0-7.873
		c-4.303,0-8.324,0-13.69,0C1269.144,886.382,1270.214,889.882,1271.132,892.883z M1286.11,19.928
		c2.486-1.909,4.897-3.493,6.941-5.457c0.867-0.833,1.529-3.466,1.328-3.58c-2.618-1.471-5.321-3.063-8.201-3.645
		c-1.007-0.204-3.751,2.453-3.595,3.483c0.285,1.875,2.145,3.512,3.837,5.956C1286.392,16.999,1286.244,18.532,1286.11,19.928z
		 M1223.484,18.832c0.433,0.416,0.866,0.832,1.299,1.248c3.378-1.731,8.671,2.917,10.434-3.666c1-3.735-1.794-4.76-4.971-4.381
		c-0.562-1.602-1.029-2.937-1.906-5.436C1226.44,11.384,1224.963,15.107,1223.484,18.832z M749.732,369.275
		c1.401-0.504,2.342-0.548,2.566-0.971c1.812-3.419,3.492-6.91,5.213-10.379c-1.161-0.48-3.198-1.567-3.35-1.348
		c-2.034,2.937-3.963,5.978-5.528,9.184C748.257,366.533,749.299,367.998,749.732,369.275z M72.672,16.94
		c0.391-2.467,1.19-5.583,0.855-5.71c-2.413-0.916-5.055-1.226-7.751-1.753c0,4.312,0,7.553,0,10.793
		c0.214-0.001,0.429-0.001,0.644-0.002c0.293-1.4,0.587-2.802,1.163-5.554c2.654,2.432,4.617,4.231,6.58,6.03
		c0.145-0.152,0.289-0.305,0.434-0.457C73.808,18.916,73.019,17.543,72.672,16.94z M255.351,16.585
		c0.547-1.998,0.979-3.575,1.41-5.153c-2.518-0.653-5.038-1.307-8.104-2.103c0,4.204,0,7.35,0,10.497
		c0.228,0.031,0.456,0.062,0.685,0.095c0.271-1.286,0.542-2.571,1.097-5.195c2.693,2.305,4.689,4.015,7.514,6.433
		C256.632,18.838,255.854,17.469,255.351,16.585z M101.392,23.022c7.323,1.511,8.77-1.219,6.438-10.947
		c-2.168,1.234-5.693,2.594-5.566,3.284c0.445,2.427,2.145,4.625,3.578,7.299C105.471,22.688,104.085,22.802,101.392,23.022z
		 M345.587,10.797c-2.583,2.85-9.389,2.333-6.003,8.388c0.693,1.239,3.64,1.218,6.003,1.913
		C345.587,17.017,345.587,14.227,345.587,10.797z M442.522,21.255c0-4.223,0-7.119,0-10.23c-2.696,2.467-9.128,2.039-6.019,8.067
		C437.156,20.356,440.092,20.442,442.522,21.255z M519.574,10.802c-2.57,2.862-9.418,2.314-6.014,8.389
		c0.698,1.246,3.648,1.23,6.014,1.931C519.574,17.038,519.574,14.243,519.574,10.802z M449.22,11.193c0,3.262,0,6.221,0,10.541
		c2.68-1.614,5.905-2.42,6.434-4.084C457.39,12.19,451.239,13.791,449.22,11.193z M222.39,12.544
		c-2.38,0.813-5.247,0.915-5.899,2.169c-2.942,5.654,4.186,4.448,5.899,7.38C222.39,19.368,222.39,16.642,222.39,12.544z
		 M1359.656,14.561c1.623,1.468,2.809,2.541,4.187,3.787c1.382-1.265,2.564-2.347,4.016-3.677c-1.072-0.531-1.852-0.917-2.714-1.344
		c0.731-1.341,1.46-2.676,2.229-4.087c-2.576,0-4.767,0-7.354,0c1.044,1.647,1.809,2.855,2.61,4.124
		C1361.705,13.734,1360.965,14.033,1359.656,14.561z M53.667,16.807c0.2-0.667,0.4-1.334,0.601-2.002
		c-1.811-0.548-3.621-1.096-5.432-1.643c-0.472,2.048-1.577,4.247-1.141,6.079c0.21,0.882,3.33,1.069,5.131,1.571
		c0.082-0.332,0.164-0.665,0.246-0.997c-1.524-0.395-3.048-0.788-4.573-1.183c0.113-0.449,0.227-0.898,0.34-1.348
		C50.449,17.125,52.058,16.966,53.667,16.807z M468.544,16.781c0.218-0.613,0.436-1.226,0.653-1.838
		c-1.668-0.608-3.768-2.118-4.888-1.582c-1.248,0.597-2.489,3.31-2.108,4.635c0.404,1.411,2.712,2.277,4.188,3.38
		c0.172-0.27,0.344-0.539,0.516-0.81c-1.228-0.817-2.455-1.634-4.771-3.178C465.312,17.087,466.928,16.934,468.544,16.781z
		 M433.775,16.582c0.148-0.523,0.297-1.048,0.445-1.571c-1.745-0.618-3.798-2.083-5.139-1.593c-1.131,0.413-2.3,3.379-1.867,4.693
		c0.464,1.409,2.78,2.209,4.289,3.274c0.181-0.286,0.361-0.571,0.543-0.857c-1.262-0.762-2.524-1.524-4.792-2.894
		C430.379,17.129,432.077,16.855,433.775,16.582z M378.902,21.616c0.383-0.35,0.765-0.699,1.148-1.049
		c-1.267-0.781-2.535-1.563-4.76-2.936c3.102-0.518,4.808-0.802,6.514-1.085c0.145-0.512,0.289-1.023,0.433-1.535
		c-1.651-0.642-3.479-2.022-4.896-1.684c-1.083,0.26-2.558,2.964-2.222,4.096C375.6,19.052,377.568,20.241,378.902,21.616z
		 M365.774,21.807c1.302-2.665,2.364-4.085,2.571-5.622c0.086-0.64-1.65-1.524-2.558-2.298c-0.889,1.319-2.11,2.544-2.522,3.999
		C363.065,18.591,364.382,19.727,365.774,21.807z M489.839,12.307c-1.358,2.448-2.511,3.683-2.609,4.996
		c-0.065,0.879,1.368,1.869,2.13,2.81c1.055-1.09,2.592-2.03,2.989-3.322C492.607,15.955,491.198,14.605,489.839,12.307z
		 M352.546,19.498c1.543-1.632,3.013-3.186,4.105-4.341c-0.64-0.582-1.714-1.557-2.789-2.531c1.559-0.839,3.116-1.678,4.765-2.566
		c-1.965,0-3.875,0-6.082,0C352.546,13.534,352.546,16.726,352.546,19.498z M21.619,868.835c-1.04-1.339-1.885-2.428-2.73-3.518
		c-0.557,1.15-1.602,2.327-1.54,3.442c0.07,1.27,1.129,2.484,1.758,3.723C19.823,871.443,20.539,870.403,21.619,868.835z
		 M1107.055,227.043c0.643,0.09,1.284,0.18,1.926,0.271c2.828-2.284,2.328-4.711-1.238-7.334
		C1107.514,222.333,1107.284,224.688,1107.055,227.043z M99.079,20.969c1.469-7.872,0.566-8.831-5.806-7.134
		c0,2.063,0,4.161,0,6.747c1.094-2.639,1.993-4.81,2.893-6.979c0.537,0.173,1.073,0.347,1.61,0.521
		C98.155,16.114,98.534,18.106,99.079,20.969z M26.057,20.007c-0.598-0.044-1.196-0.089-1.794-0.134
		c-0.512-1.993-1.025-3.987-1.748-6.797c-0.794,8.033-0.279,8.543,5.832,7.102c0-2.144,0-4.204,0-7.461
		C27.315,16.001,26.686,18.004,26.057,20.007z M19.121,20.691c0.016-0.165,0.033-0.329,0.049-0.494
		c-1.361-0.312-2.722-0.626-4.183-0.962c-0.193-3-0.369-5.753-0.546-8.506c-0.291,0.037-0.582,0.075-0.873,0.112
		c0,3.28,0,6.56,0,9.849C15.69,20.691,17.405,20.691,19.121,20.691z M85.612,19.451c-1.493,0-2.885,0-4.277,0
		c0.056,0.42,0.112,0.84,0.168,1.259c1.682-0.257,3.364-0.512,5.046-0.769c-1.107-1.903-2.214-3.805-3.372-5.796
		c0.557-0.03,1.679-0.092,2.802-0.153c-0.057-0.36-0.114-0.722-0.171-1.083c-1.525,0.392-3.05,0.784-4.575,1.176
		C82.525,15.668,83.817,17.25,85.612,19.451z M866.557,104.95c0.134-0.787,0.268-1.575,0.4-2.363
		c-2.604-0.472-5.209-0.943-7.814-1.415c-0.138,0.684-0.275,1.368-0.413,2.051C861.339,103.799,863.947,104.375,866.557,104.95z
		 M183.294,11.461c0,2.784,0,5.512,0,8.079c0.98-1.833,1.98-3.702,2.98-5.572c1.171,1.785,2.341,3.57,3.25,4.956
		C192.172,13.444,186.481,13.372,183.294,11.461z M43.225,19.939c0.446,0.051,0.892,0.102,1.338,0.152
		c0.293-3.425,0.586-6.852,0.879-10.277c-0.578-0.038-1.155-0.075-1.732-0.113C43.548,13.113,43.387,16.526,43.225,19.939z"/>

	<path id="p1" style="fill-rule:evenodd;clip-rule:evenodd;fill:#FFFFFF;" d="M625.88,84.703c-0.705-0.075-1.142-0.266-1.341-0.123
		c-8.953,6.377-18.258,3.948-27.766,1.506c-8.131-2.09-15.943-1.423-23.452,3.388c-3.776,2.418-8.617,3.648-13.139,4.327
		c-7.966,1.195-12.466-2.343-15.047-11.2c-1.112-3.814-1.768-7.801-2.231-11.756c-0.939-8.046-5.489-10.705-13.048-8.171
		c-4.994,1.674-10.38,2.138-15.536,3.375c-5.786,1.388-11.51,3.038-17.263,4.57c-1.603,0.428-3.187,0.972-4.815,1.245
		c-13.58,2.275-27.149,4.619-40.763,6.67c-4.397,0.662-8.917,0.517-13.785-0.428c1.593-0.726,3.123-1.682,4.789-2.139
		c9.118-2.504,18.142-5.859,27.439-7.087c14.792-1.952,28.579-7.998,43.879-8.529c9.923-0.346,20.797-1.976,29.84-8.201
		c1.859-1.279,4.853-0.783,7.211-1.487c8.717-2.604,17.257-5.959,26.113-7.904c9.029-1.984,18.314-3.166,27.549-3.78
		c28.048-1.868,56.124-3.322,84.191-4.875c14.125-0.782,28.25-1.552,42.384-2.102c13.131-0.512,26.271-0.812,39.409-1.036
		c7.289-0.124,15.396-1.91,21.685,0.635c9.209,3.727,18.594-1.225,27.367,2.906c2.191,1.031,5.254,0.281,7.914,0.229
		c6.954-0.14,13.905-0.384,20.859-0.513c4.1-0.076,7.982-0.398,10.598-4.287c0.538-0.801,1.94-1.418,2.955-1.436
		c7.14-0.122,14.281-0.065,22.368-0.065c-1.064,2.192-1.888,3.688-2.534,5.256c-1.896,4.596-0.16,7.298,4.657,8.222
		c17.384,3.332,34.766,6.683,52.089,10.313c10.369,2.173,20.649,4.79,30.926,7.385c4.009,1.012,7.826,2.822,11.854,3.71
		c5.317,1.17,10.81,1.552,16.126,2.729c4.089,0.904,8.12,2.27,12.004,3.855c7.742,3.159,14.034,8.211,19.916,14.253
		c3.085,3.169,8.408,4.171,12.735,6.116c2.89,1.298,5.809,2.534,8.58,4.616c-6.063,3.739-12.526,4.439-18.976,5.116
		c-4.787,0.502-9.619,0.633-14.381,1.286c-5.317,0.73-9.069,3.95-11.698,8.51c-4.4,7.634-9.654,12.623-19.592,13.841
		c-9.506,1.164-18.646,0.937-28.07,0.925c-10.118-0.012-17.968-2.893-25.365-9.003c-2.58-2.131-5.289-2.645-8.678-0.688
		c-12.642,7.306-25.067,6.048-36.819-3.292c-0.521-0.414-0.987-0.896-1.504-1.317c-7.499-6.11-7.522-6.708,0.484-12.419
		c2.911-2.077,2.826-4.164,0.059-5.789c-1.883-1.104-4.465-2.046-6.487-1.683c-5.21,0.935-10.406,2.295-15.385,4.105
		c-9.948,3.617-15.3,3.553-21.403-4.901c-4.508-6.243-6.934-5.879-11.788,0.278c-1.434,1.82-2.899,3.761-4.755,5.077
		c-7.571,5.37-15.211,10.656-23.034,15.645c-1.807,1.151-4.425,1.256-6.697,1.395c-3.809,0.233-7.662-0.149-11.454,0.202
		c-4.039,0.374-6.51,2.816-6.057,7.055c0.568,5.324-1.731,8.943-5.952,11.724c-0.69,0.455-1.583,0.917-1.887,1.597
		c-4.331,9.689-12.657,8.943-21.153,8.586c-3.629-0.152-7.301,1.309-10.988,1.736c-2.316,0.269-4.696-0.024-7.049-0.065
		c0.135-2.49-0.488-5.364,0.543-7.4c3.4-6.723,2.916-8.97-3.754-12.665c-1.433-0.793-2.673-1.938-3.979-2.951
		c-5.593-4.337-12.872-3.271-18.162,1.349c-3.472,3.033-8.269,4.528-12.404,6.834c-2.365,1.319-5.876,2.484-6.49,4.459
		c-0.521,1.673,2.167,4.579,3.804,6.646c5.349,6.761,13.354,5.875,20.667,6.751c3.124,0.375,6.325,0.106,9.49,0.125
		c3.083,0.018,6.396-0.015,7.007,3.955c0.618,4.012,0.78,8.162-3.657,10.483c-5.267,2.754-10.389,5.995-15.963,7.864
		c-2.675,0.896-6.631-0.153-9.341-1.583c-8.066-4.255-11.207-3.718-16.363,3.814c-0.696,1.018-1.912,2.108-3.045,2.322
		c-4.702,0.889-9.459,1.963-14.206,2.012c-6.159,0.062-8.176-3.087-10.315-8.879c-2.844-7.696-6.823-15.006-10.776-22.229
		c-0.717-1.312-3.762-2.177-5.532-1.913c-3.556,0.531-7.091,1.711-10.417,3.131c-3.683,1.572-6.683,1.112-8.629-2.289
		c-2.119-3.706-4.127-7.575-5.444-11.615c-2.047-6.285-2.914-7.332-9.461-6.984c-2.457,0.13-4.978,0.629-7.292,1.455
		c-3.181,1.135-5.937,1.331-8.95-0.682c-4.277-2.856-8.262,0-12.34,1.185c-6.012,1.747-12.058,3.412-18.166,4.773
		c-1.393,0.311-3.444-0.337-4.583-1.28c-2.796-2.314-5.375-4.934-7.784-7.659c-3-3.391-1.411-7.016,3.511-7.706
		c6.26-0.876,12.568-1.429,18.865-2.016c5.466-0.51,10.945-0.883,16.419-1.298c6.869-0.521,13.406-1.868,19.459-5.581
		c3.043-1.867,6.74-2.848,10.269-3.711C624.223,99.259,627.453,94.547,625.88,84.703z M615.825,47.946
		c-0.039,0.25-0.078,0.5-0.117,0.75c-2.828,0-5.665-0.126-8.48,0.069c-0.969,0.066-2.648,0.916-2.661,1.439
		c-0.026,1.11,0.553,2.575,1.397,3.277c0.942,0.783,2.429,1.016,3.722,1.258c10.768,2.017,21.562,3.904,32.308,6.029
		c2.021,0.4,4.335,1.228,5.715,2.64c8.063,8.252,17.931,6.14,27.591,5.078c1.329-0.146,3.042-1.214,3.67-2.354
		c1.189-2.159,2.72-4.926,2.216-6.977c-0.424-1.727-3.407-3.739-5.468-4.007C655.78,52.552,635.796,50.298,615.825,47.946z
		 M682.871,160.814c2.385-1.965,4.718-3.077,5.599-4.894c0.591-1.219-0.44-3.782-1.513-5.135c-2.368-2.987-5.27-5.544-7.859-8.364
		c-2.117-2.305-3.972-1.94-5.847,0.244c-2.773,3.233-4.014,7.508-1.496,10.551C674.417,156.437,678.854,158.189,682.871,160.814z
		 M990.1,83.441c-2.83,0.783-5.856,1.169-8.435,2.455c-2.917,1.456-3.339,4.364-1.06,6.66c2.06,2.074,4.609,3.916,7.282,5.065
		c4.033,1.733,11.008-2.644,11.615-6.848C1000.15,86.295,997.037,84.025,990.1,83.441z M664.451,89.379
		c4.704,5.051,14.019,5.433,18.258,2.461c0.719-0.504,1.077-1.522,1.601-2.303c-0.871-0.578-1.686-1.524-2.624-1.666
		c-2.767-0.418-5.62-0.905-8.37-0.639C670.32,87.524,667.403,88.629,664.451,89.379z M673.466,108.94
		c-0.481-1.099-0.666-1.916-0.868-1.921c-2.716-0.056-5.566-0.487-8.105,0.199c-1.761,0.476-3.189,2.446-4.526,3.96
		c-0.216,0.244,0.737,2.245,1.297,2.319c1.986,0.264,4.275,0.603,6.004-0.132C669.574,112.386,671.466,110.427,673.466,108.94z
		 M956.136,107.638c-2.636-2.02-4.104-3.776-5.92-4.283c-0.97-0.271-2.54,1.616-3.84,2.529c1.456,1.917,2.76,4.005,4.528,5.569
		C951.178,111.696,953.578,109.534,956.136,107.638z"/>
	<path style="fill-rule:evenodd;clip-rule:evenodd;fill:#FFFFFF;" d="M801.271,513.911c-2.14-2.936-4.349-5.577-6.116-8.488
		c-2.256-3.715-5.536-5.685-9.576-4.785c-4.136,0.921-4.517,4.744-4.594,8.432c-0.134,6.315-0.729,6.735-6.916,6.944
		c-2.966,0.1-5.988,0.375-8.856,1.087c-4.862,1.206-8.259-0.351-10.125-4.839c-2.291-5.507-5.844-9.339-11.513-11.711
		c-1.762-0.736-3.257-4.249-3.311-6.526c-0.162-6.797,0.119-13.646,0.842-20.409c1.005-9.417,2.606-18.769,3.879-28.158
		c1.663-12.27,10.612-20.195,22.884-20.604c4.482-0.149,6.594,1.769,6.823,5.943c0.117,2.121-0.315,4.272-0.485,6.411
		c-0.4,5.043-1.372,10.136-0.945,15.109c0.218,2.533,2.813,4.96,4.582,7.243c5.112,6.596,9.796,5.791,15.841,0.331
		c3.718-3.359,9.599-4.267,14.416-6.475c8.636-3.956,14.832-10.081,18.537-19.13c2.865-6.994,5.443-7.369,12.734-5.471
		c7.849,2.043,13.544,7.28,18.649,12.86c2.448,2.675,2.808,7.323,3.933,11.131c1.496,5.059,3.004,10.131,4.103,15.283
		c0.344,1.609-0.621,3.497-0.987,5.258c-1.296-1.018-3.182-1.778-3.756-3.106c-1.038-2.396-1.278-5.135-1.874-7.724
		c-0.717-3.119-2.47-4.659-5.788-3.685c-2.556,0.751-5.119,1.481-7.646,2.317c-3.7,1.224-5.612,3.794-6.078,7.718
		c-0.725,6.097-1.803,6.972-7.932,7.096c-3.497,0.071-7.002-0.076-10.492,0.096c-7.369,0.363-10.505,4.218-11.771,11.267
		c-1.518,8.445-4.24,16.677-6.518,24.979C803.076,512.803,802.265,513.115,801.271,513.911z M767.512,488.178
		c-2.416-1.585-3.823-3.028-5.439-3.321c-0.677-0.123-2.729,2.435-2.494,3.341c0.349,1.338,2.048,2.886,3.431,3.197
		C763.939,491.604,765.314,489.831,767.512,488.178z"/>
	<path style="fill-rule:evenodd;clip-rule:evenodd;fill:#FFFFFF;" d="M374.527,529.156c0.695-3.744,1.369-7.494,2.09-11.233
		c0.834-4.326-0.425-7.433-4.743-9.206c-2.124-0.874-3.926-2.51-6.021-3.482c-3.817-1.771-7.624-3.768-11.657-4.813
		c-4.423-1.146-6.814-3.173-6.28-7.909c1.077-9.546,1.997-19.115,3.391-28.614c0.206-1.404,2.466-3.145,4.086-3.581
		c4.305-1.16,10.096,2.863,11.972,6.944c0.935,2.037,2.976,4.134,5.023,4.982c5.596,2.323,14.182-1.451,17.264-6.718
		c0.715-1.222,2.542-2.471,3.905-2.527c11.61-0.476,23.23-0.763,34.85-0.824c1.098-0.006,2.206,1.92,3.309,2.95
		c-1.136,1.203-2.174,3.317-3.422,3.449c-4.612,0.486-9.292,0.324-13.947,0.393c-1.83,0.027-3.663-0.043-5.491,0.039
		c-7.07,0.316-8.114,1.603-7.87,8.736c0.16,4.646,1.263,9.809-0.335,13.839c-2.335,5.894-5.645,12.401-10.494,16.049
		c-6.037,4.54-7.103,9.413-6.324,15.831c0.36,2.965,0.898,5.913,1.152,8.886c0.306,3.572-1.054,5.689-5.073,5.657
		c-4.045-0.033-5.182-2.242-5.009-5.775c0.049-0.996,0.008-1.997,0.008-2.995C374.784,529.207,374.656,529.182,374.527,529.156z"/>
	<path style="fill-rule:evenodd;clip-rule:evenodd;fill:#FFFFFF;" d="M793.86,288.38c13.519,1.502,21.924,8.642,28.968,17.867
		c0.473,0.619,0.604,2.132,0.186,2.629c-0.453,0.538-1.992,0.804-2.625,0.439c-4.19-2.419-7.508-0.341-11.209,1.438
		c-2.712,1.305-5.937,1.837-8.985,2.093c-6.08,0.51-12.194,0.686-18.298,0.813c-3.135,0.065-6.353,0.106-9.401-0.503
		c-6.532-1.308-7.969,4.151-10.921,7.666c-2.422,2.884-1.908,5.759-0.177,8.773c0.981,1.707,1.96,3.523,2.396,5.416
		c0.923,4.002-1.039,5.683-5.028,6.099c-4.449,0.464-4.128-2.49-3.954-5.074c0.141-2.089,1.161-4.102,1.544-6.195
		c0.523-2.871,1.51-5.896,1.068-8.659c-1.129-7.057,3.554-17.384,9.781-20.859c4.762-2.657,9.088-6.187,14.021-8.416
		C785.516,289.965,790.386,289.304,793.86,288.38z"/>
	<path style="fill-rule:evenodd;clip-rule:evenodd;fill:#FFFFFF;" d="M770.388,550.78c0.493,4.803,1.12,9.596,1.428,14.409
		c0.168,2.627,0.494,5.61-0.534,7.844c-1.033,2.244-3.657,3.757-5.584,5.592c-1.582-1.892-3.604-3.566-4.661-5.715
		c-3.108-6.325-7.273-11.117-14.288-13.383c-3.685-1.19-7.212-3.237-10.4-5.479c-2.601-1.828-1.784-7.581,0.568-11.58
		c1.688-2.869,2.613-6.18,4.091-9.188c0.556-1.132,1.909-2.931,2.562-2.796c10.181,2.11,21.039,3.199,26.074,14.55
		c0.797,1.796,1.515,3.627,2.269,5.441C771.403,550.577,770.896,550.679,770.388,550.78z"/>
	<path style="fill-rule:evenodd;clip-rule:evenodd;fill:#FFFFFF;" d="M860.867,511.655c1.463-7.241,2.804-14.733,4.566-22.124
		c0.63-2.641,3.027-3.029,4.268-0.548c2.783,5.571,5.315,11.301,7.48,17.141c2.051,5.534,3.585,11.269,5.166,16.965
		c0.456,1.645,0.983,3.962,0.199,5.052c-0.716,0.994-3.235,1.2-4.83,0.945c-3.255-0.52-6.545-1.276-9.603-2.485
		C861.384,523.942,861.904,517.516,860.867,511.655z"/>
	<path style="fill-rule:evenodd;clip-rule:evenodd;fill:#FFFFFF;" d="M737.6,611.807c-0.506-1.724-1.569-3.553-1.469-5.314
		c0.452-7.956,1.049-15.915,1.963-23.83c0.601-5.191,3.868-6.681,7.846-3.202c3.929,3.433,7.624,7.514,10.207,12.009
		c3.304,5.748-2.064,15.62-8.82,17.611C744.341,609.96,741.332,610.764,737.6,611.807z"/>
	<path style="fill-rule:evenodd;clip-rule:evenodd;fill:#FFFFFF;" d="M729.982,647.272c0.846-4.354,0.509-8.414,5.64-9.611
		c1.331-0.311,2.935-2.826,3.04-4.42c0.427-6.446,5.514-8.239,10.015-10.406c1.129-0.543,3.757,0.42,4.686,1.534
		c0.886,1.061,1.222,3.97,0.455,4.756c-2.193,2.249-4.84,4.616-7.74,5.469c-3.206,0.941-4.48,2.456-5.532,5.408
		c-1.187,3.326-3.114,6.456-5.146,9.373c-0.554,0.795-2.822,0.995-3.976,0.572C730.578,649.638,730.271,647.862,729.982,647.272z"/>
	<path style="fill-rule:evenodd;clip-rule:evenodd;fill:#FFFFFF;" d="M577.021,860.229c4.735,0.046,8.258,3.436,8.297,7.984
		c0.036,4.217-3.88,7.752-8.52,7.689c-4.489-0.061-7.914-3.376-7.976-7.72C568.758,863.509,572.188,860.182,577.021,860.229z"/>
	<path style="fill-rule:evenodd;clip-rule:evenodd;fill:#FFFFFF;" d="M525.948,116.32c2.46,0.195,5.055-0.03,7.341,0.706
		c2.163,0.697,4,2.403,5.982,3.665c-2.064,2.085-4.181,5.927-6.182,5.868c-3.534-0.104-7.151-2.321-10.4-4.224
		c-1.08-0.631-1.973-3.44-1.44-4.483c0.61-1.198,2.897-1.543,4.457-2.258C525.786,115.836,525.867,116.078,525.948,116.32z"/>
	<path style="fill-rule:evenodd;clip-rule:evenodd;fill:#FFFFFF;" d="M1271.132,892.883c-0.918-3.001-1.988-6.501-3.265-10.671
		c5.366,0,9.388,0,13.69,0c0,2.726,0,5.294,0,7.873C1278.527,890.898,1275.477,891.717,1271.132,892.883z"/>
	<path style="fill-rule:evenodd;clip-rule:evenodd;fill:#FFFFFF;" d="M1286.11,19.928c0.134-1.396,0.281-2.93,0.311-3.243
		c-1.692-2.443-3.552-4.08-3.837-5.956c-0.156-1.03,2.588-3.687,3.595-3.483c2.88,0.582,5.583,2.174,8.201,3.645
		c0.201,0.113-0.461,2.747-1.328,3.58C1291.008,16.436,1288.597,18.019,1286.11,19.928z"/>
	<path style="fill-rule:evenodd;clip-rule:evenodd;fill:#FFFFFF;" d="M1223.484,18.832c1.479-3.724,2.956-7.447,4.855-12.235
		c0.877,2.5,1.345,3.834,1.906,5.436c3.177-0.379,5.971,0.646,4.971,4.381c-1.763,6.582-7.056,1.934-10.434,3.666
		C1224.351,19.664,1223.917,19.248,1223.484,18.832z"/>
	<path style="fill-rule:evenodd;clip-rule:evenodd;fill:#FFFFFF;" d="M749.732,369.275c-0.434-1.277-1.476-2.742-1.099-3.514
		c1.565-3.206,3.494-6.247,5.528-9.184c0.151-0.22,2.188,0.867,3.35,1.348c-1.721,3.469-3.4,6.96-5.213,10.379
		C752.074,368.727,751.134,368.771,749.732,369.275z"/>
	<path style="fill-rule:evenodd;clip-rule:evenodd;fill:#FFFFFF;" d="M72.672,16.94c0.347,0.604,1.136,1.976,1.924,3.348
		c-0.145,0.152-0.289,0.304-0.434,0.457c-1.963-1.799-3.926-3.598-6.58-6.03c-0.576,2.752-0.869,4.154-1.163,5.554
		c-0.215,0.001-0.43,0.001-0.644,0.002c0-3.24,0-6.481,0-10.793c2.696,0.527,5.339,0.837,7.751,1.753
		C73.863,11.357,73.063,14.473,72.672,16.94z"/>
	<path style="fill-rule:evenodd;clip-rule:evenodd;fill:#FFFFFF;" d="M255.351,16.585c0.503,0.884,1.281,2.253,2.601,4.574
		c-2.824-2.417-4.821-4.127-7.514-6.433c-0.555,2.624-0.825,3.909-1.097,5.195c-0.229-0.032-0.457-0.063-0.685-0.095
		c0-3.147,0-6.293,0-10.497c3.067,0.796,5.586,1.449,8.104,2.103C256.329,13.01,255.897,14.587,255.351,16.585z"/>
	<path style="fill-rule:evenodd;clip-rule:evenodd;fill:#FFFFFF;" d="M101.392,23.022c2.693-0.221,4.079-0.334,4.45-0.364
		c-1.433-2.673-3.132-4.872-3.578-7.299c-0.127-0.689,3.397-2.05,5.566-3.284C110.162,21.804,108.715,24.534,101.392,23.022z"/>
	<path style="fill-rule:evenodd;clip-rule:evenodd;fill:#FFFFFF;" d="M345.587,10.797c0,3.429,0,6.22,0,10.3
		c-2.363-0.694-5.31-0.674-6.003-1.913C336.198,13.131,343.004,13.647,345.587,10.797z"/>
	<path style="fill-rule:evenodd;clip-rule:evenodd;fill:#FFFFFF;" d="M442.522,21.255c-2.43-0.812-5.366-0.898-6.019-2.163
		c-3.11-6.029,3.323-5.6,6.019-8.067C442.522,14.136,442.522,17.032,442.522,21.255z"/>
	<path style="fill-rule:evenodd;clip-rule:evenodd;fill:#FFFFFF;" d="M519.574,10.802c0,3.441,0,6.235,0,10.32
		c-2.366-0.701-5.316-0.686-6.014-1.931C510.156,13.116,517.003,13.664,519.574,10.802z"/>
	<path style="fill-rule:evenodd;clip-rule:evenodd;fill:#FFFFFF;" d="M449.22,11.193c2.019,2.598,8.17,0.997,6.434,6.456
		c-0.528,1.664-3.753,2.471-6.434,4.084C449.22,17.414,449.22,14.455,449.22,11.193z"/>
	<path style="fill-rule:evenodd;clip-rule:evenodd;fill:#FFFFFF;" d="M222.39,12.544c0,4.098,0,6.824,0,9.549
		c-1.713-2.932-8.841-1.726-5.899-7.38C217.144,13.459,220.01,13.357,222.39,12.544z"/>
	<path style="fill-rule:evenodd;clip-rule:evenodd;fill:#FFFFFF;" d="M1359.656,14.561c1.309-0.527,2.049-0.826,2.974-1.198
		c-0.802-1.268-1.566-2.476-2.61-4.124c2.588,0,4.778,0,7.354,0c-0.77,1.411-1.498,2.746-2.229,4.087
		c0.862,0.427,1.642,0.812,2.714,1.344c-1.451,1.33-2.634,2.413-4.016,3.677C1362.465,17.101,1361.279,16.028,1359.656,14.561z"/>
	<path style="fill-rule:evenodd;clip-rule:evenodd;fill:#FFFFFF;" d="M53.667,16.807c-1.609,0.159-3.218,0.318-4.828,0.478
		c-0.113,0.449-0.227,0.898-0.34,1.348c1.524,0.395,3.048,0.788,4.573,1.183c-0.082,0.332-0.164,0.665-0.246,0.997
		c-1.801-0.501-4.921-0.689-5.131-1.571c-0.436-1.832,0.669-4.031,1.141-6.079c1.811,0.547,3.621,1.095,5.432,1.643
		C54.068,15.473,53.868,16.141,53.667,16.807z"/>
	<path style="fill-rule:evenodd;clip-rule:evenodd;fill:#FFFFFF;" d="M468.544,16.781c-1.616,0.153-3.232,0.307-6.411,0.607
		c2.316,1.544,3.543,2.361,4.771,3.178c-0.172,0.271-0.344,0.54-0.516,0.81c-1.476-1.103-3.784-1.969-4.188-3.38
		c-0.381-1.326,0.86-4.039,2.108-4.635c1.121-0.536,3.22,0.974,4.888,1.582C468.979,15.555,468.762,16.168,468.544,16.781z"/>
	<path style="fill-rule:evenodd;clip-rule:evenodd;fill:#FFFFFF;" d="M433.775,16.582c-1.698,0.273-3.396,0.547-6.521,1.051
		c2.268,1.37,3.53,2.132,4.792,2.894c-0.182,0.286-0.362,0.571-0.543,0.857c-1.508-1.065-3.825-1.865-4.289-3.274
		c-0.433-1.313,0.736-4.28,1.867-4.693c1.341-0.49,3.394,0.975,5.139,1.593C434.072,15.534,433.923,16.059,433.775,16.582z"/>
	<path style="fill-rule:evenodd;clip-rule:evenodd;fill:#FFFFFF;" d="M378.902,21.616c-1.334-1.375-3.302-2.564-3.784-4.193
		c-0.336-1.132,1.139-3.836,2.222-4.096c1.417-0.339,3.245,1.042,4.896,1.684c-0.144,0.512-0.288,1.023-0.433,1.535
		c-1.706,0.284-3.412,0.568-6.514,1.085c2.225,1.373,3.493,2.155,4.76,2.936C379.667,20.917,379.285,21.267,378.902,21.616z"/>
	<path style="fill-rule:evenodd;clip-rule:evenodd;" d="M365.774,21.807c-1.393-2.08-2.709-3.215-2.509-3.921
		c0.412-1.455,1.633-2.679,2.522-3.999c0.908,0.773,2.644,1.658,2.558,2.298C368.138,17.721,367.076,19.142,365.774,21.807z"/>
	<path style="fill-rule:evenodd;clip-rule:evenodd;" d="M489.839,12.307c1.359,2.298,2.769,3.648,2.511,4.483
		c-0.397,1.292-1.935,2.232-2.989,3.322c-0.762-0.94-2.196-1.931-2.13-2.81C487.328,15.99,488.481,14.755,489.839,12.307z"/>
	<path style="fill-rule:evenodd;clip-rule:evenodd;fill:#FFFFFF;" d="M352.546,19.498c0-2.771,0-5.963,0-9.438
		c2.207,0,4.117,0,6.082,0c-1.649,0.888-3.207,1.727-4.765,2.566c1.074,0.975,2.148,1.949,2.789,2.531
		C355.559,16.312,354.089,17.866,352.546,19.498z"/>
	<path style="fill-rule:evenodd;clip-rule:evenodd;fill:#FFFFFF;" d="M21.619,868.835c-1.08,1.568-1.796,2.608-2.513,3.647
		c-0.629-1.238-1.688-2.453-1.758-3.723c-0.062-1.115,0.983-2.292,1.54-3.442C19.734,866.407,20.579,867.496,21.619,868.835z"/>
	<path style="fill-rule:evenodd;clip-rule:evenodd;fill:#FFFFFF;" d="M1107.055,227.043c0.229-2.354,0.459-4.709,0.688-7.064
		c3.566,2.623,4.066,5.05,1.238,7.334C1108.339,227.223,1107.697,227.133,1107.055,227.043z"/>
	<path style="fill-rule:evenodd;clip-rule:evenodd;fill:#FFFFFF;" d="M99.079,20.969c-0.545-2.863-0.924-4.854-1.303-6.846
		c-0.537-0.174-1.073-0.348-1.61-0.521c-0.899,2.17-1.799,4.34-2.893,6.979c0-2.586,0-4.684,0-6.747
		C99.646,12.138,100.548,13.097,99.079,20.969z"/>
	<path style="fill-rule:evenodd;clip-rule:evenodd;fill:#FFFFFF;" d="M26.057,20.007c0.629-2.003,1.258-4.006,2.29-7.291
		c0,3.258,0,5.318,0,7.461c-6.111,1.441-6.626,0.931-5.832-7.102c0.723,2.811,1.236,4.804,1.748,6.797
		C24.861,19.918,25.459,19.963,26.057,20.007z"/>
	<path style="fill-rule:evenodd;clip-rule:evenodd;fill:#FFFFFF;" d="M19.121,20.691c-1.716,0-3.431,0-5.552,0
		c0-3.29,0-6.569,0-9.849c0.291-0.037,0.582-0.075,0.873-0.112c0.177,2.752,0.353,5.505,0.546,8.506
		c1.461,0.336,2.822,0.649,4.183,0.962C19.153,20.362,19.137,20.526,19.121,20.691z"/>
	<path style="fill-rule:evenodd;clip-rule:evenodd;fill:#FFFFFF;" d="M85.612,19.451c-1.795-2.2-3.087-3.783-4.379-5.367
		c1.525-0.392,3.05-0.784,4.575-1.176c0.057,0.361,0.114,0.723,0.171,1.083c-1.123,0.062-2.246,0.123-2.802,0.153
		c1.158,1.991,2.265,3.893,3.372,5.796c-1.682,0.257-3.364,0.512-5.046,0.769c-0.056-0.419-0.112-0.839-0.168-1.259
		C82.727,19.451,84.119,19.451,85.612,19.451z"/>
	<path style="fill-rule:evenodd;clip-rule:evenodd;fill:#FFFFFF;" d="M866.557,104.95c-2.609-0.575-5.218-1.15-7.827-1.727
		c0.138-0.683,0.275-1.368,0.413-2.051c2.605,0.472,5.21,0.943,7.814,1.415C866.824,103.375,866.69,104.163,866.557,104.95z"/>
	<path style="fill-rule:evenodd;clip-rule:evenodd;fill:#FFFFFF;" d="M183.294,11.461c3.187,1.911,8.877,1.983,6.23,7.463
		c-0.909-1.386-2.08-3.17-3.25-4.956c-1,1.87-2,3.739-2.98,5.572C183.294,16.973,183.294,14.245,183.294,11.461z"/>
	<path style="fill-rule:evenodd;clip-rule:evenodd;fill:#FFFFFF;" d="M43.225,19.939c0.162-3.413,0.323-6.826,0.485-10.238
		c0.577,0.038,1.155,0.075,1.732,0.113c-0.293,3.425-0.586,6.852-0.879,10.277C44.117,20.041,43.671,19.99,43.225,19.939z"/>
	<path style="fill-rule:evenodd;clip-rule:evenodd;" d="M615.825,47.946c19.971,2.353,39.955,4.606,59.894,7.203
		c2.061,0.269,5.044,2.281,5.468,4.007c0.504,2.05-1.027,4.817-2.216,6.977c-0.628,1.14-2.342,2.208-3.67,2.354
		c-9.66,1.062-19.528,3.174-27.591-5.078c-1.38-1.412-3.695-2.239-5.715-2.64c-10.747-2.125-21.54-4.012-32.308-6.029
		c-1.293-0.242-2.779-0.475-3.722-1.258c-0.844-0.702-1.423-2.167-1.397-3.277c0.013-0.523,1.692-1.373,2.661-1.439
		c2.815-0.195,5.653-0.069,8.48-0.069C615.747,48.446,615.786,48.196,615.825,47.946z"/>
	<path style="fill-rule:evenodd;clip-rule:evenodd;" d="M682.871,160.814c-4.016-2.625-8.453-4.377-11.117-7.598
		c-2.519-3.043-1.277-7.318,1.496-10.551c1.875-2.184,3.73-2.549,5.847-0.244c2.589,2.82,5.491,5.377,7.859,8.364
		c1.073,1.354,2.104,3.917,1.513,5.135C687.589,157.737,685.256,158.849,682.871,160.814z"/>
	<path style="fill-rule:evenodd;clip-rule:evenodd;" d="M990.1,83.441c6.938,0.584,10.051,2.854,9.403,7.332
		c-0.607,4.205-7.582,8.581-11.615,6.848c-2.673-1.149-5.223-2.991-7.282-5.065c-2.279-2.296-1.857-5.205,1.06-6.66
		C984.243,84.61,987.27,84.225,990.1,83.441z"/>
	<path style="fill-rule:evenodd;clip-rule:evenodd;" d="M664.451,89.379c2.952-0.75,5.869-1.855,8.866-2.146
		c2.75-0.266,5.603,0.221,8.37,0.639c0.938,0.142,1.753,1.088,2.624,1.666c-0.524,0.781-0.882,1.799-1.601,2.303
		C678.47,94.812,669.155,94.431,664.451,89.379z"/>
	<path style="fill-rule:evenodd;clip-rule:evenodd;" d="M673.466,108.94c-2,1.487-3.892,3.446-6.197,4.426
		c-1.729,0.735-4.018,0.396-6.004,0.132c-0.561-0.074-1.513-2.075-1.297-2.319c1.336-1.514,2.765-3.485,4.526-3.96
		c2.54-0.687,5.39-0.255,8.105-0.199C672.8,107.024,672.985,107.842,673.466,108.94z"/>
	<path style="fill-rule:evenodd;clip-rule:evenodd;" d="M956.136,107.638c-2.558,1.896-4.958,4.058-5.231,3.816
		c-1.769-1.564-3.072-3.653-4.528-5.569c1.3-0.913,2.87-2.8,3.84-2.529C952.032,103.862,953.5,105.618,956.136,107.638z"/>
	<path style="fill-rule:evenodd;clip-rule:evenodd;" d="M767.512,488.178c-2.197,1.653-3.572,3.426-4.503,3.217
		c-1.383-0.312-3.082-1.859-3.431-3.197c-0.235-0.906,1.817-3.464,2.494-3.341C763.688,485.149,765.096,486.593,767.512,488.178z"/>


		<animate xlink:href="#p1"
    attributeName="d"
    attributeType="XML"
    from=""
        to=""
    dur="10s"
    fill="freeze" />


</g>
</svg>
