<?xml version="1.0" encoding="utf-8"?>
<!-- Generator: Adobe Illustrator 19.1.0, SVG Export Plug-In . SVG Version: 6.00 Build 0)  -->
<svg version="1.1" id="Layer_1" xmlns="http://www.w3.org/2000/svg" xmlns:xlink="http://www.w3.org/1999/xlink" width="7000px" height="7000px" x="0px" y="0px"
	 viewBox="3194 -4604 7000 10000" style="enable-background:new 3194 -4604 7000 10000;" xml:space="preserve">
<style type="text/css">
	.st0{fill:#FFFFFF;}
</style>
<g>
	<path d="M10194,2583.5c-2333.3,0-4666.7,0-7000,0c0-1458.3,0-2916.7,0-4375c2333.3,0,4666.7,0,7000,0
		C10194-333.2,10194,1125.2,10194,2583.5z M6236.9-1379.7c7.6,47.9-8.1,70.8-53.1,81.8c-17.2,4.2-35.1,9-49.9,18
		c-29.4,18.1-61.2,24.6-94.6,27.1c-26.6,2-53.3,3.8-79.8,6.3c-30.6,2.9-61.3,5.5-91.7,9.8c-23.9,3.4-31.7,21-17.1,37.5
		c11.7,13.2,24.2,26,37.8,37.2c5.5,4.6,15.5,7.7,22.3,6.2c29.7-6.6,59.1-14.7,88.3-23.2c19.8-5.8,39.2-19.6,60-5.8
		c14.6,9.8,28,8.8,43.5,3.3c11.2-4,23.5-6.4,35.5-7.1c31.8-1.7,36,3.4,46,34c6.4,19.6,16.2,38.5,26.5,56.5c9.5,16.5,24,18.8,42,11.1
		c16.2-6.9,33.4-12.6,50.6-15.2c8.6-1.3,23.4,2.9,26.9,9.3c19.2,35.1,38.6,70.7,52.4,108.1c10.4,28.2,20.2,43.5,50.1,43.2
		c23.1-0.2,46.2-5.5,69.1-9.8c5.5-1,11.4-6.3,14.8-11.3c25.1-36.6,40.3-39.2,79.6-18.5c13.2,7,32.4,12.1,45.4,7.7
		c27.1-9.1,52-24.8,77.6-38.2c21.6-11.3,20.8-31.5,17.8-51c-3-19.3-19.1-19.1-34.1-19.2c-15.4-0.1-31,1.2-46.1-0.6
		c-35.6-4.3-74.5,0-100.5-32.8c-8-10.1-21-24.2-18.5-32.3c3-9.6,20.1-15.3,31.6-21.7c20.1-11.2,43.4-18.5,60.3-33.2
		c25.7-22.5,61.1-27.6,88.3-6.6c6.4,4.9,12.4,10.5,19.3,14.3c32.4,18,34.8,28.9,18.3,61.6c-5,9.9-2,23.9-2.6,36
		c11.4,0.2,23,1.6,34.3,0.3c17.9-2.1,35.8-9.2,53.4-8.4c41.3,1.7,81.8,5.4,102.8-41.7c1.5-3.3,5.8-5.6,9.2-7.8
		c20.5-13.5,31.7-31.1,28.9-57c-2.2-20.6,9.8-32.5,29.4-34.3c18.4-1.7,37.2,0.2,55.7-1c11-0.7,23.8-1.2,32.6-6.8
		c38-24.3,75.2-50,112-76.1c9-6.4,16.1-15.8,23.1-24.7c23.6-29.9,35.4-31.7,57.3-1.4c29.7,41.1,55.7,41.4,104.1,23.8
		c24.2-8.8,49.5-15.4,74.8-20c9.8-1.8,22.4,2.8,31.5,8.2c13.5,7.9,13.9,18-0.3,28.1c-38.9,27.8-38.8,30.7-2.4,60.4
		c2.5,2,4.8,4.4,7.3,6.4c57.1,45.4,117.5,51.5,179,16c16.5-9.5,29.6-7,42.2,3.3c36,29.7,74.1,43.7,123.3,43.8
		c45.8,0.1,90.3,1.2,136.5-4.5c48.3-5.9,73.9-30.2,95.3-67.3c12.8-22.2,31-37.8,56.9-41.4c23.2-3.2,46.6-3.8,69.9-6.3
		c31.4-3.3,62.8-6.7,92.3-24.9c-13.5-10.1-27.7-16.1-41.7-22.4c-21-9.5-46.9-14.3-61.9-29.7c-28.6-29.4-59.2-53.9-96.8-69.3
		c-18.9-7.7-38.5-14.3-58.4-18.7c-25.8-5.7-52.6-7.6-78.4-13.3c-19.6-4.3-38.1-13.1-57.6-18c-50-12.6-99.9-25.3-150.4-35.9
		c-84.2-17.6-168.7-33.9-253.2-50.1c-23.4-4.5-31.9-17.6-22.6-40c3.1-7.6,7.1-14.9,12.3-25.6c-39.3,0-74-0.3-108.7,0.3
		c-4.9,0.1-11.8,3.1-14.4,7c-12.7,18.9-31.6,20.5-51.5,20.8c-33.8,0.6-67.6,1.8-101.4,2.5c-12.9,0.3-27.8,3.9-38.5-1.1
		c-42.7-20.1-88.3,4-133.1-14.1c-30.6-12.4-70-3.7-105.4-3.1c-63.9,1.1-127.8,2.5-191.6,5c-68.7,2.7-137.4,6.4-206.1,10.2
		c-136.5,7.6-273,14.6-409.3,23.7c-44.9,3-90,8.7-133.9,18.4c-43.1,9.5-84.6,25.8-127,38.4c-11.5,3.4-26,1-35.1,7.2
		c-44,30.3-96.8,38.2-145.1,39.9c-74.4,2.6-141.4,32-213.3,41.5c-45.2,6-89.1,22.3-133.4,34.5c-8.1,2.2-15.5,6.9-23.3,10.4
		c23.7,4.6,45.6,5.3,67,2.1c66.2-10,132.2-21.4,198.2-32.4c7.9-1.3,15.6-4,23.4-6.1c28-7.4,55.8-15.5,83.9-22.2
		c25.1-6,51.3-8.3,75.5-16.4c36.8-12.3,58.9,0.6,63.4,39.7c2.3,19.2,5.4,38.6,10.8,57.2c12.5,43.1,34.4,60.3,73.2,54.5
		c22-3.3,45.5-9.3,63.9-21c36.5-23.4,74.5-26.6,114-16.5c46.2,11.9,91.5,23.7,135-7.3C6231.3-1381,6233.4-1380.1,6236.9-1379.7z
		 M7089.6,707c4.8-3.9,8.8-5.4,9.4-7.8c11.1-40.4,24.3-80.4,31.7-121.4c6.2-34.3,21.4-53,57.2-54.8c17-0.8,34-0.1,51-0.5
		c29.8-0.6,35-4.9,38.6-34.5c2.3-19.1,11.6-31.6,29.5-37.5c12.3-4.1,24.8-7.6,37.2-11.3c16.1-4.7,24.7,2.7,28.1,17.9
		c2.9,12.6,4.1,25.9,9.1,37.6c2.8,6.5,12,10.2,18.3,15.1c1.8-8.6,6.5-17.7,4.8-25.6c-5.3-25-12.7-49.7-19.9-74.3
		c-5.5-18.5-7.2-41.1-19.1-54.1c-24.8-27.1-52.5-52.6-90.7-62.5c-35.4-9.2-48-7.4-61.9,26.6c-18,44-48.1,73.8-90.1,93
		c-23.4,10.7-52,15.1-70.1,31.5c-29.4,26.5-52.2,30.5-77-1.6c-8.6-11.1-21.2-22.9-22.3-35.2c-2.1-24.2,2.6-48.9,4.6-73.5
		c0.8-10.4,2.9-20.9,2.4-31.2c-1.1-20.3-11.4-29.6-33.2-28.9c-59.7,2-103.2,40.5-111.3,100.2c-6.2,45.7-14,91.1-18.9,136.9
		c-3.5,32.9-4.9,66.2-4.1,99.2c0.3,11.1,7.5,28.1,16.1,31.7c27.6,11.5,44.8,30.2,56,56.9c9.1,21.8,25.6,29.4,49.2,23.5
		c13.9-3.5,28.6-4.8,43.1-5.3c30.1-1,33-3.1,33.6-33.8c0.4-17.9,2.2-36.5,22.3-41c19.6-4.4,35.6,5.2,46.6,23.3
		C7068.4,679.9,7079.2,692.7,7089.6,707z M5014.8,781.1c0.6,0.1,1.2,0.2,1.9,0.4c0,4.9,0.2,9.7,0,14.6c-0.8,17.2,4.7,27.9,24.4,28.1
		c19.5,0.2,26.1-10.1,24.7-27.5c-1.2-14.5-3.9-28.8-5.6-43.2c-3.8-31.2,1.4-54.9,30.7-77c23.6-17.7,39.7-49.4,51-78
		c7.8-19.6,2.4-44.7,1.6-67.3c-1.2-34.7,3.9-40.9,38.3-42.5c8.9-0.4,17.8-0.1,26.7-0.2c22.6-0.3,45.4,0.5,67.8-1.9
		c6.1-0.6,11.1-10.9,16.6-16.8c-5.4-5-10.7-14.4-16.1-14.3c-56.5,0.3-113,1.7-169.4,4c-6.6,0.3-15.5,6.3-19,12.3
		c-15,25.6-56.7,44-83.9,32.7c-10-4.1-19.9-14.3-24.4-24.2c-9.1-19.8-37.3-39.4-58.2-33.8c-7.9,2.1-18.9,10.6-19.9,17.4
		c-6.8,46.2-11.2,92.7-16.5,139.1c-2.6,23,9,32.9,30.5,38.5c19.6,5.1,38.1,14.8,56.7,23.4c10.2,4.7,19,12.7,29.3,16.9
		c21,8.6,27.1,23.7,23.1,44.8C5021.5,744.7,5018.2,762.9,5014.8,781.1z M7053.5-389.5c-16.9,4.5-40.6,7.7-61.4,17.1
		c-24,10.8-45,28-68.2,40.9c-30.3,16.9-53,67.1-47.6,101.4c2.1,13.4-2.6,28.1-5.2,42.1c-1.9,10.2-6.8,20-7.5,30.1
		c-0.8,12.6-2.4,26.9,19.2,24.7c19.4-2,28.9-10.2,24.4-29.7c-2.1-9.2-6.9-18-11.6-26.3c-8.4-14.7-10.9-28.6,0.9-42.7
		c14.4-17.1,21.3-43.6,53.1-37.3c14.8,3,30.5,2.8,45.7,2.4c29.7-0.6,59.4-1.5,89-4c14.8-1.2,30.5-3.8,43.7-10.2
		c18-8.6,34.1-18.8,54.5-7c3.1,1.8,10.6,0.5,12.8-2.1c2-2.4,1.4-9.8-0.9-12.8C7160.1-347.5,7119.2-382.2,7053.5-389.5z
		 M6939.4,886.2c2.5-0.5,4.9-1,7.4-1.5c-3.7-8.8-7.2-17.7-11-26.5c-24.5-55.2-77.3-60.5-126.8-70.7c-3.2-0.7-9.8,8.1-12.5,13.6
		c-7.2,14.6-11.7,30.7-19.9,44.7c-11.4,19.4-15.4,47.4-2.8,56.3c15.5,10.9,32.7,20.9,50.6,26.6c34.1,11,54.4,34.3,69.5,65.1
		c5.1,10.4,15,18.6,22.7,27.8c9.4-8.9,22.1-16.3,27.1-27.2c5-10.9,3.4-25.4,2.6-38.1C6944.9,932.9,6941.8,909.6,6939.4,886.2z
		 M7379.3,696c5,28.5,2.5,59.7,35.2,72.7c14.9,5.9,30.9,9.6,46.7,12.1c7.8,1.2,20,0.2,23.5-4.6c3.8-5.3,1.2-16.6-1-24.6
		c-7.7-27.7-15.1-55.6-25.1-82.5c-10.5-28.4-22.8-56.2-36.4-83.3c-6-12.1-17.7-10.2-20.7,2.7C7392.9,624.4,7386.4,660.8,7379.3,696z
		 M6780,1182.9c18.1-5.1,32.8-9,47.3-13.3c32.8-9.7,58.9-57.7,42.9-85.6c-12.6-21.9-30.5-41.7-49.6-58.4
		c-19.3-16.9-35.2-9.7-38.1,15.6c-4.4,38.5-7.3,77.2-9.5,115.9C6772.4,1165.7,6777.5,1174.6,6780,1182.9z M6743,1355.4
		c1.4,2.9,2.9,11.5,7,13c5.6,2.1,16.6,1.1,19.3-2.8c9.9-14.2,19.3-29.4,25-45.6c5.1-14.4,11.3-21.7,26.9-26.3
		c14.1-4.1,27-15.7,37.6-26.6c3.7-3.8,2.1-18-2.2-23.1c-4.5-5.4-17.3-10.1-22.8-7.5c-21.9,10.5-46.6,19.3-48.7,50.6
		c-0.5,7.7-8.3,20-14.8,21.5C6745.4,1314.4,6747.1,1334.2,6743,1355.4z M5999.3,2390.7c-23.5-0.2-40.2,15.9-39.9,38.7
		c0.3,21.1,17,37.2,38.8,37.5c22.6,0.3,41.6-16.9,41.4-37.4C6039.5,2407.4,6022.3,2390.9,5999.3,2390.7z M5751-1226
		c-0.4-1.2-0.8-2.4-1.2-3.5c-7.6,3.5-18.7,5.2-21.7,11c-2.6,5.1,1.8,18.7,7,21.8c15.8,9.3,33.4,20,50.6,20.5
		c9.7,0.3,20-18.4,30.1-28.5c-9.6-6.1-18.6-14.4-29.1-17.8C5775.6-1226.1,5763-1225,5751-1226z M9373.9,2549.4
		c21.1-5.7,36-9.6,50.7-13.6c0-12.5,0-25,0-38.3c-20.9,0-40.5,0-66.6,0C9364.2,2517.8,9369.4,2534.9,9373.9,2549.4z M9446.7-1694.6
		c12.1-9.3,23.8-17,33.7-26.5c4.2-4,7.4-16.9,6.5-17.4c-12.7-7.2-25.9-14.9-39.9-17.7c-4.9-1-18.2,11.9-17.5,16.9
		c1.4,9.1,10.4,17.1,18.7,29C9448.1-1708.9,9447.4-1701.4,9446.7-1694.6z M9142.2-1699.9c2.1,2,4.2,4,6.3,6.1
		c16.4-8.4,42.2,14.2,50.7-17.8c4.9-18.2-8.7-23.1-24.2-21.3c-2.7-7.8-5-14.3-9.3-26.4C9156.6-1736.2,9149.4-1718.1,9142.2-1699.9z
		 M6839,3.8c6.8-2.5,11.4-2.7,12.5-4.7c8.8-16.6,17-33.6,25.3-50.5c-5.6-2.3-15.5-7.6-16.3-6.6c-9.9,14.3-19.3,29.1-26.9,44.6
		C6831.8-9.5,6836.9-2.4,6839,3.8z M3547.3-1709.1c1.9-12,5.8-27.1,4.2-27.8c-11.7-4.5-24.6-6-37.7-8.5c0,21,0,36.7,0,52.5
		c1,0,2.1,0,3.1,0c1.4-6.8,2.9-13.6,5.7-27c12.9,11.8,22.4,20.6,32,29.3c0.7-0.7,1.4-1.5,2.1-2.2
		C3552.8-1699.5,3549-1706.2,3547.3-1709.1z M4435.4-1710.9c2.7-9.7,4.8-17.4,6.9-25.1c-12.2-3.2-24.5-6.4-39.4-10.2
		c0,20.4,0,35.7,0,51c1.1,0.2,2.2,0.3,3.3,0.5c1.3-6.3,2.6-12.5,5.3-25.3c13.1,11.2,22.8,19.5,36.5,31.3
		C4441.7-1699.9,4437.9-1706.6,4435.4-1710.9z M3686.9-1679.6c35.6,7.3,42.6-5.9,31.3-53.2c-10.5,6-27.7,12.6-27.1,16
		c2.2,11.8,10.4,22.5,17.4,35.5C3706.8-1681.2,3700-1680.6,3686.9-1679.6z M4874.1-1739c-12.6,13.9-45.6,11.3-29.2,40.8
		c3.4,6,17.7,5.9,29.2,9.3C4874.1-1708.8,4874.1-1722.3,4874.1-1739z M5345.4-1688.2c0-20.5,0-34.6,0-49.7
		c-13.1,12-44.4,9.9-29.3,39.2C5319.3-1692.5,5333.6-1692.1,5345.4-1688.2z M5720-1739c-12.5,13.9-45.8,11.3-29.2,40.8
		c3.4,6.1,17.7,6,29.2,9.4C5720-1708.7,5720-1722.3,5720-1739z M5378-1737.1c0,15.9,0,30.2,0,51.2c13-7.8,28.7-11.8,31.3-19.9
		C5417.7-1732.2,5387.8-1724.5,5378-1737.1z M4275.2-1730.5c-11.6,4-25.5,4.4-28.7,10.5c-14.3,27.5,20.4,21.6,28.7,35.9
		C4275.2-1697.3,4275.2-1710.6,4275.2-1730.5z M9804.3-1720.7c7.9,7.1,13.7,12.4,20.4,18.4c6.7-6.2,12.5-11.4,19.5-17.9
		c-5.2-2.6-9-4.5-13.2-6.5c3.6-6.5,7.1-13,10.8-19.9c-12.5,0-23.2,0-35.8,0c5.1,8,8.8,13.9,12.7,20
		C9814.2-1724.7,9810.6-1723.3,9804.3-1720.7z M3454.9-1709.8c1-3.2,1.9-6.5,2.9-9.7c-8.8-2.7-17.6-5.3-26.4-8
		c-2.3,10-7.7,20.6-5.5,29.6c1,4.3,16.2,5.2,24.9,7.6c0.4-1.6,0.8-3.2,1.2-4.8c-7.4-1.9-14.8-3.8-22.2-5.8c0.5-2.2,1.1-4.4,1.7-6.6
		C3439.3-1708.2,3447.1-1709,3454.9-1709.8z M5471.9-1709.9c1.1-3,2.1-6,3.2-8.9c-8.1-3-18.3-10.3-23.8-7.7
		c-6.1,2.9-12.1,16.1-10.2,22.5c2,6.9,13.2,11.1,20.4,16.4c0.8-1.3,1.7-2.6,2.5-3.9c-6-4-11.9-7.9-23.2-15.5
		C5456.2-1708.4,5464.1-1709.2,5471.9-1709.9z M5302.9-1710.9c0.7-2.5,1.4-5.1,2.2-7.6c-8.5-3-18.5-10.1-25-7.7
		c-5.5,2-11.2,16.4-9.1,22.8c2.3,6.9,13.5,10.7,20.9,15.9c0.9-1.4,1.8-2.8,2.6-4.2c-6.1-3.7-12.3-7.4-23.3-14.1
		C5286.4-1708.2,5294.6-1709.6,5302.9-1710.9z M5036.1-1686.4c1.9-1.7,3.7-3.4,5.6-5.1c-6.2-3.8-12.3-7.6-23.1-14.3
		c15.1-2.5,23.4-3.9,31.7-5.3c0.7-2.5,1.4-5,2.1-7.5c-8-3.1-16.9-9.8-23.8-8.2c-5.3,1.3-12.4,14.4-10.8,19.9
		C5020.1-1698.9,5029.6-1693.1,5036.1-1686.4z M4972.3-1685.5c6.3-13,11.5-19.9,12.5-27.3c0.4-3.1-8-7.4-12.4-11.2
		c-4.3,6.4-10.3,12.4-12.3,19.4C4959.1-1701.1,4965.5-1695.6,4972.3-1685.5z M5575.5-1731.7c-6.6,11.9-12.2,17.9-12.7,24.3
		c-0.3,4.3,6.7,9.1,10.4,13.7c5.1-5.3,12.6-9.9,14.5-16.2C5588.9-1713.9,5582.1-1720.5,5575.5-1731.7z M4908-1696.7
		c7.5-7.9,14.6-15.5,20-21.1c-3.1-2.8-8.3-7.6-13.6-12.3c7.6-4.1,15.1-8.2,23.2-12.5c-9.6,0-18.8,0-29.6,0
		C4908-1725.7,4908-1710.2,4908-1696.7z M3299.1,2432.5c-5.1-6.5-9.2-11.8-13.3-17.1c-2.7,5.6-7.8,11.3-7.5,16.7
		c0.3,6.2,5.5,12.1,8.5,18.1C3290.4,2445.2,3293.9,2440.2,3299.1,2432.5z M8576.2-687.7c3.1,0.4,6.2,0.9,9.4,1.3
		c13.7-11.1,11.3-22.9-6-35.7C8578.4-710.6,8577.3-699.1,8576.2-687.7z M3675.7-1689.6c7.1-38.3,2.8-42.9-28.2-34.7
		c0,10,0,20.2,0,32.8c5.3-12.8,9.7-23.4,14.1-33.9c2.6,0.8,5.2,1.7,7.8,2.5C3671.2-1713.2,3673-1703.5,3675.7-1689.6z
		 M3320.7-1694.2c-2.9-0.2-5.8-0.4-8.7-0.7c-2.5-9.7-5-19.4-8.5-33c-3.9,39.1-1.4,41.5,28.4,34.5c0-10.4,0-20.4,0-36.3
		C3326.8-1713.7,3323.7-1704,3320.7-1694.2z M3287-1690.9c0.1-0.8,0.2-1.6,0.2-2.4c-6.6-1.5-13.2-3-20.3-4.7
		c-0.9-14.6-1.8-28-2.7-41.4c-1.4,0.2-2.8,0.4-4.2,0.5c0,15.9,0,31.9,0,47.9C3270.3-1690.9,3278.6-1690.9,3287-1690.9z
		 M3610.2-1696.9c-7.3,0-14,0-20.8,0c0.3,2,0.5,4.1,0.8,6.1c8.2-1.2,16.4-2.5,24.5-3.7c-5.4-9.3-10.8-18.5-16.4-28.2
		c2.7-0.1,8.2-0.4,13.6-0.7c-0.3-1.8-0.6-3.5-0.8-5.3c-7.4,1.9-14.8,3.8-22.2,5.7C3595.2-1715.3,3601.5-1707.6,3610.2-1696.9z
		 M7407-1281.3c0.7-3.8,1.3-7.7,1.9-11.5c-12.7-2.3-25.3-4.6-38-6.9c-0.7,3.3-1.3,6.7-2,10C7381.6-1286.9,7394.3-1284.1,7407-1281.3
		z M4085.1-1735.8c0,13.5,0,26.8,0,39.3c4.8-8.9,9.6-18,14.5-27.1c5.7,8.7,11.4,17.4,15.8,24.1
		C4128.3-1726.1,4100.6-1726.5,4085.1-1735.8z M3404.1-1694.6c2.2,0.2,4.3,0.5,6.5,0.7c1.4-16.7,2.8-33.3,4.3-50
		c-2.8-0.2-5.6-0.4-8.4-0.5C3405.7-1727.7,3404.9-1711.2,3404.1-1694.6z"/>
	<path id="p1" class="st0" d="M6236.9-1379.7c-3.4-0.4-5.6-1.3-6.5-0.6c-43.5,31-88.8,19.2-135,7.3c-39.5-10.2-77.5-6.9-114,16.5
		c-18.4,11.8-41.9,17.7-63.9,21c-38.7,5.8-60.6-11.4-73.2-54.5c-5.4-18.5-8.6-37.9-10.8-57.2c-4.6-39.1-26.7-52-63.4-39.7
		c-24.3,8.1-50.5,10.4-75.5,16.4c-28.1,6.7-56,14.8-83.9,22.2c-7.8,2.1-15.5,4.7-23.4,6.1c-66,11.1-132,22.5-198.2,32.4
		c-21.4,3.2-43.4,2.5-67-2.1c7.7-3.5,15.2-8.2,23.3-10.4c44.3-12.2,88.2-28.5,133.4-34.5c71.9-9.5,138.9-38.9,213.3-41.5
		c48.2-1.7,101.1-9.6,145.1-39.9c9-6.2,23.6-3.8,35.1-7.2c42.4-12.7,83.9-29,127-38.4c43.9-9.6,89-15.4,133.9-18.4
		c136.4-9.1,272.9-16.2,409.3-23.7c68.7-3.8,137.3-7.5,206.1-10.2c63.8-2.5,127.7-3.9,191.6-5c35.4-0.6,74.9-9.3,105.4,3.1
		c44.8,18.1,90.4-6,133.1,14.1c10.7,5,25.5,1.4,38.5,1.1c33.8-0.7,67.6-1.9,101.4-2.5c19.9-0.4,38.8-1.9,51.5-20.8
		c2.6-3.9,9.4-6.9,14.4-7c34.7-0.6,69.4-0.3,108.7-0.3c-5.2,10.7-9.2,17.9-12.3,25.6c-9.2,22.3-0.8,35.5,22.6,40
		c84.5,16.2,169,32.5,253.2,50.1c50.4,10.6,100.4,23.3,150.4,35.9c19.5,4.9,38,13.7,57.6,18c25.8,5.7,52.6,7.5,78.4,13.3
		c19.9,4.4,39.5,11,58.4,18.7c37.6,15.4,68.2,39.9,96.8,69.3c15,15.4,40.9,20.3,61.9,29.7c14,6.3,28.2,12.3,41.7,22.4
		c-29.5,18.2-60.9,21.6-92.3,24.9c-23.3,2.4-46.8,3.1-69.9,6.3c-25.9,3.5-44.1,19.2-56.9,41.4c-21.4,37.1-46.9,61.4-95.3,67.3
		c-46.2,5.7-90.7,4.6-136.5,4.5c-49.2-0.1-87.4-14.1-123.3-43.8c-12.5-10.4-25.7-12.9-42.2-3.3c-61.5,35.5-121.9,29.4-179-16
		c-2.5-2-4.8-4.4-7.3-6.4c-36.5-29.7-36.6-32.6,2.4-60.4c14.2-10.1,13.7-20.2,0.3-28.1c-9.2-5.4-21.7-9.9-31.5-8.2
		c-25.3,4.5-50.6,11.2-74.8,20c-48.4,17.6-74.4,17.3-104.1-23.8c-21.9-30.4-33.7-28.6-57.3,1.4c-7,8.8-14.1,18.3-23.1,24.7
		c-36.8,26.1-74,51.8-112,76.1c-8.8,5.6-21.5,6.1-32.6,6.8c-18.5,1.1-37.2-0.7-55.7,1c-19.6,1.8-31.6,13.7-29.4,34.3
		c2.8,25.9-8.4,43.5-28.9,57c-3.4,2.2-7.7,4.5-9.2,7.8c-21.1,47.1-61.5,43.5-102.8,41.7c-17.6-0.7-35.5,6.4-53.4,8.4
		c-11.3,1.3-22.8-0.1-34.3-0.3c0.7-12.1-2.4-26.1,2.6-36c16.5-32.7,14.2-43.6-18.3-61.6c-7-3.9-13-9.4-19.3-14.3
		c-27.2-21.1-62.6-15.9-88.3,6.6c-16.9,14.7-40.2,22-60.3,33.2c-11.5,6.4-28.6,12.1-31.6,21.7c-2.5,8.1,10.5,22.3,18.5,32.3
		c26,32.9,64.9,28.6,100.5,32.8c15.2,1.8,30.8,0.5,46.1,0.6c15,0.1,31.1-0.1,34.1,19.2c3,19.5,3.8,39.7-17.8,51
		c-25.6,13.4-50.5,29.1-77.6,38.2c-13,4.4-32.2-0.7-45.4-7.7c-39.2-20.7-54.5-18.1-79.6,18.5c-3.4,4.9-9.3,10.2-14.8,11.3
		c-22.9,4.3-46,9.5-69.1,9.8c-29.9,0.3-39.7-15-50.1-43.2c-13.8-37.4-33.2-73-52.4-108.1c-3.5-6.4-18.3-10.6-26.9-9.3
		c-17.3,2.6-34.5,8.3-50.6,15.2c-17.9,7.6-32.5,5.4-42-11.1c-10.3-18-20.1-36.8-26.5-56.5c-10-30.6-14.2-35.6-46-34
		c-11.9,0.6-24.2,3.1-35.5,7.1c-15.5,5.5-28.9,6.5-43.5-3.3c-20.8-13.9-40.2,0-60,5.8c-29.2,8.5-58.6,16.6-88.3,23.2
		c-6.8,1.5-16.7-1.6-22.3-6.2c-13.6-11.2-26.1-24-37.8-37.2c-14.6-16.5-6.9-34.1,17.1-37.5c30.4-4.3,61.1-6.9,91.7-9.8
		c26.6-2.5,53.2-4.3,79.8-6.3c33.4-2.5,65.2-9.1,94.6-27.1c14.8-9.1,32.8-13.8,49.9-18C6228.8-1308.9,6244.5-1331.8,6236.9-1379.7z
		 M6188-1558.4c-0.2,1.2-0.4,2.4-0.6,3.6c-13.7,0-27.5-0.6-41.2,0.3c-4.7,0.3-12.9,4.5-12.9,7c-0.1,5.4,2.7,12.5,6.8,15.9
		c4.6,3.8,11.8,4.9,18.1,6.1c52.4,9.8,104.8,19,157.1,29.3c9.8,1.9,21.1,6,27.8,12.8c39.2,40.1,87.2,29.9,134.1,24.7
		c6.5-0.7,14.8-5.9,17.8-11.4c5.8-10.5,13.2-23.9,10.8-33.9c-2.1-8.4-16.6-18.2-26.6-19.5C6382.2-1536,6285.1-1547,6188-1558.4z
		 M6513.9-1009.7c11.6-9.6,22.9-15,27.2-23.8c2.9-5.9-2.1-18.4-7.4-25c-11.5-14.5-25.6-27-38.2-40.7c-10.3-11.2-19.3-9.4-28.4,1.2
		c-13.5,15.7-19.5,36.5-7.3,51.3C6472.8-1030.9,6494.4-1022.4,6513.9-1009.7z M8007.6-1385.8c-13.8,3.8-28.5,5.7-41,11.9
		c-14.2,7.1-16.2,21.2-5.2,32.4c10,10.1,22.4,19,35.4,24.6c19.6,8.4,53.5-12.9,56.5-33.3C8056.4-1372,8041.3-1383,8007.6-1385.8z
		 M6424.4-1357c22.9,24.6,68.2,26.4,88.8,12c3.5-2.5,5.2-7.4,7.8-11.2c-4.2-2.8-8.2-7.4-12.8-8.1c-13.5-2-27.3-4.4-40.7-3.1
		C6452.9-1366,6438.7-1360.6,6424.4-1357z M6468.2-1261.9c-2.3-5.3-3.2-9.3-4.2-9.3c-13.2-0.3-27.1-2.4-39.4,1
		c-8.6,2.3-15.5,11.9-22,19.3c-1,1.2,3.6,10.9,6.3,11.3c9.7,1.3,20.8,2.9,29.2-0.6C6449.3-1245.1,6458.5-1254.6,6468.2-1261.9z
		 M7842.5-1268.2c-12.8-9.8-20-18.4-28.8-20.8c-4.7-1.3-12.3,7.9-18.7,12.3c7.1,9.3,13.4,19.5,22,27.1
		C7818.4-1248.5,7830-1259,7842.5-1268.2z"/>
	<path class="st0" d="M7089.6,707c-10.4-14.3-21.1-27.1-29.7-41.3c-11-18.1-26.9-27.6-46.6-23.3c-20.1,4.5-22,23.1-22.3,41
		c-0.7,30.7-3.5,32.7-33.6,33.8c-14.4,0.5-29.1,1.8-43.1,5.3c-23.6,5.9-40.2-1.7-49.2-23.5c-11.1-26.8-28.4-45.4-56-56.9
		c-8.6-3.6-15.8-20.7-16.1-31.7c-0.8-33,0.6-66.3,4.1-99.2c4.9-45.8,12.7-91.2,18.9-136.9c8.1-59.7,51.6-98.2,111.3-100.2
		c21.8-0.7,32.1,8.6,33.2,28.9c0.6,10.3-1.5,20.8-2.4,31.2c-1.9,24.5-6.7,49.3-4.6,73.5c1.1,12.3,13.7,24.1,22.3,35.2
		c24.9,32.1,47.6,28.2,77,1.6c18.1-16.3,46.7-20.7,70.1-31.5c42-19.2,72.1-49,90.1-93c13.9-34,26.5-35.8,61.9-26.6
		c38.2,9.9,65.8,35.4,90.7,62.5c11.9,13,13.7,35.6,19.1,54.1c7.3,24.6,14.6,49.3,19.9,74.3c1.7,7.8-3,17-4.8,25.6
		c-6.3-4.9-15.5-8.6-18.3-15.1c-5-11.6-6.2-25-9.1-37.6c-3.5-15.2-12-22.7-28.1-17.9c-12.4,3.7-24.9,7.2-37.2,11.3
		c-18,6-27.3,18.4-29.5,37.5c-3.5,29.6-8.8,33.9-38.6,34.5c-17,0.3-34-0.4-51,0.5c-35.8,1.8-51.1,20.5-57.2,54.8
		c-7.4,41.1-20.6,81.1-31.7,121.4C7098.3,701.6,7094.4,703.1,7089.6,707z M6925.4,581.9c-11.7-7.7-18.6-14.7-26.4-16.1
		c-3.3-0.6-13.3,11.8-12.1,16.2c1.7,6.5,10,14,16.7,15.5C6908.1,598.5,6914.7,589.9,6925.4,581.9z"/>
	<path class="st0" d="M5014.8,781.1c3.4-18.2,6.7-36.4,10.2-54.6c4.1-21-2.1-36.1-23.1-44.8c-10.3-4.2-19.1-12.2-29.3-16.9
		c-18.6-8.6-37.1-18.3-56.7-23.4c-21.5-5.6-33.1-15.4-30.5-38.5c5.2-46.4,9.7-92.9,16.5-139.1c1-6.8,12-15.3,19.9-17.4
		c20.9-5.6,49.1,13.9,58.2,33.8c4.5,9.9,14.5,20.1,24.4,24.2c27.2,11.3,68.9-7.1,83.9-32.7c3.5-5.9,12.4-12,19-12.3
		c56.4-2.3,112.9-3.7,169.4-4c5.3,0,10.7,9.3,16.1,14.3c-5.5,5.8-10.6,16.1-16.6,16.8c-22.4,2.4-45.2,1.6-67.8,1.9
		c-8.9,0.1-17.8-0.2-26.7,0.2c-34.4,1.5-39.4,7.8-38.3,42.5c0.8,22.6,6.1,47.7-1.6,67.3c-11.4,28.7-27.4,60.3-51,78
		c-29.4,22.1-34.5,45.8-30.7,77c1.8,14.4,4.4,28.7,5.6,43.2c1.5,17.4-5.1,27.7-24.7,27.5c-19.7-0.2-25.2-10.9-24.4-28.1
		c0.2-4.8,0-9.7,0-14.6C5016.1,781.4,5015.5,781.2,5014.8,781.1z"/>
	<path class="st0" d="M7053.5-389.5c65.7,7.3,106.6,42,140.8,86.9c2.3,3,2.9,10.4,0.9,12.8c-2.2,2.6-9.7,3.9-12.8,2.1
		c-20.4-11.8-36.5-1.7-54.5,7c-13.2,6.3-28.9,8.9-43.7,10.2c-29.6,2.5-59.3,3.3-89,4c-15.2,0.3-30.9,0.5-45.7-2.4
		c-31.8-6.4-38.7,20.2-53.1,37.3c-11.8,14-9.3,28-0.9,42.7c4.8,8.3,9.5,17.1,11.6,26.3c4.5,19.5-5.1,27.6-24.4,29.7
		c-21.6,2.3-20.1-12.1-19.2-24.7c0.7-10.2,5.6-19.9,7.5-30.1c2.5-14,7.3-28.7,5.2-42.1c-5.5-34.3,17.3-84.5,47.6-101.4
		c23.2-12.9,44.2-30.1,68.2-40.9C7013-381.8,7036.6-385,7053.5-389.5z"/>
	<path class="st0" d="M6939.4,886.2c2.4,23.4,5.4,46.7,6.9,70.1c0.8,12.8,2.4,27.3-2.6,38.1c-5,10.9-17.8,18.3-27.1,27.2
		c-7.7-9.2-17.5-17.3-22.7-27.8c-15.1-30.8-35.4-54-69.5-65.1c-17.9-5.8-35.1-15.7-50.6-26.6c-12.6-8.9-8.7-36.9,2.8-56.3
		c8.2-13.9,12.7-30,19.9-44.7c2.7-5.5,9.3-14.2,12.5-13.6c49.5,10.3,102.3,15.6,126.8,70.7c3.9,8.7,7.4,17.6,11,26.5
		C6944.3,885.2,6941.9,885.7,6939.4,886.2z"/>
	<path class="st0" d="M7379.3,696c7.1-35.2,13.6-71.6,22.2-107.6c3.1-12.8,14.7-14.7,20.7-2.7c13.5,27.1,25.8,54.9,36.4,83.3
		c10,26.9,17.4,54.8,25.1,82.5c2.2,8,4.8,19.3,1,24.6c-3.5,4.8-15.7,5.8-23.5,4.6c-15.8-2.5-31.8-6.2-46.7-12.1
		C7381.8,755.8,7384.3,724.5,7379.3,696z"/>
	<path class="st0" d="M6780,1182.9c-2.5-8.4-7.6-17.3-7.1-25.8c2.2-38.7,5.1-77.4,9.5-115.9c2.9-25.2,18.8-32.5,38.1-15.6
		c19.1,16.7,37.1,36.5,49.6,58.4c16.1,27.9-10,75.9-42.9,85.6C6812.8,1174,6798.1,1177.9,6780,1182.9z"/>
	<path class="st0" d="M6743,1355.4c4.1-21.2,2.5-40.9,27.4-46.7c6.5-1.5,14.3-13.7,14.8-21.5c2.1-31.3,26.8-40.1,48.7-50.6
		c5.5-2.6,18.3,2,22.8,7.5c4.3,5.2,5.9,19.3,2.2,23.1c-10.7,10.9-23.5,22.4-37.6,26.6c-15.6,4.6-21.8,11.9-26.9,26.3
		c-5.8,16.2-15.1,31.4-25,45.6c-2.7,3.9-13.7,4.8-19.3,2.8C6745.9,1366.9,6744.4,1358.2,6743,1355.4z"/>
	<path class="st0" d="M5999.3,2390.7c23,0.2,40.1,16.7,40.3,38.8c0.2,20.5-18.9,37.7-41.4,37.4c-21.8-0.3-38.5-16.4-38.8-37.5
		C5959.1,2406.6,5975.8,2390.5,5999.3,2390.7z"/>
	<path class="st0" d="M5751-1226c12,0.9,24.6-0.1,35.7,3.4c10.5,3.4,19.4,11.7,29.1,17.8c-10,10.1-20.3,28.8-30.1,28.5
		c-17.2-0.5-34.8-11.3-50.6-20.5c-5.3-3.1-9.6-16.7-7-21.8c3-5.8,14.1-7.5,21.7-11C5750.2-1228.3,5750.6-1227.2,5751-1226z"/>
	<path class="st0" d="M9373.9,2549.4c-4.5-14.6-9.7-31.6-15.9-51.9c26.1,0,45.6,0,66.6,0c0,13.3,0,25.7,0,38.3
		C9409.8,2539.8,9395,2543.8,9373.9,2549.4z"/>
	<path class="st0" d="M9446.7-1694.6c0.7-6.8,1.4-14.2,1.5-15.8c-8.2-11.9-17.3-19.8-18.7-29c-0.8-5,12.6-17.9,17.5-16.9
		c14,2.8,27.1,10.6,39.9,17.7c1,0.5-2.2,13.4-6.5,17.4C9470.5-1711.6,9458.8-1703.9,9446.7-1694.6z"/>
	<path class="st0" d="M9142.2-1699.9c7.2-18.1,14.4-36.2,23.6-59.5c4.3,12.2,6.5,18.6,9.3,26.4c15.4-1.8,29,3.1,24.2,21.3
		c-8.6,32-34.3,9.4-50.7,17.8C9146.5-1695.9,9144.3-1697.9,9142.2-1699.9z"/>
	<path class="st0" d="M6839,3.8c-2.1-6.2-7.2-13.3-5.3-17.1c7.6-15.6,17-30.4,26.9-44.6c0.7-1.1,10.6,4.2,16.3,6.6
		c-8.4,16.9-16.5,33.8-25.3,50.5C6850.4,1.1,6845.8,1.4,6839,3.8z"/>
	<path class="st0" d="M3547.3-1709.1c1.7,2.9,5.5,9.6,9.4,16.3c-0.7,0.7-1.4,1.5-2.1,2.2c-9.5-8.7-19.1-17.5-32-29.3
		c-2.8,13.4-4.2,20.2-5.7,27c-1,0-2.1,0-3.1,0c0-15.8,0-31.5,0-52.5c13.1,2.6,26,4.1,37.7,8.5
		C3553.1-1736.3,3549.2-1721.1,3547.3-1709.1z"/>
	<path class="st0" d="M4435.4-1710.9c2.4,4.3,6.2,11,12.6,22.2c-13.7-11.8-23.4-20.1-36.5-31.3c-2.7,12.8-4,19-5.3,25.3
		c-1.1-0.2-2.2-0.3-3.3-0.5c0-15.3,0-30.6,0-51c14.9,3.9,27.2,7,39.4,10.2C4440.2-1728.3,4438.1-1720.6,4435.4-1710.9z"/>
	<path class="st0" d="M3686.9-1679.6c13.1-1.1,19.8-1.6,21.6-1.8c-7-13-15.2-23.7-17.4-35.5c-0.6-3.3,16.5-10,27.1-16
		C3729.6-1685.5,3722.5-1672.2,3686.9-1679.6z"/>
	<path class="st0" d="M4874.1-1739c0,16.7,0,30.2,0,50.1c-11.5-3.4-25.8-3.3-29.2-9.3C4828.5-1727.7,4861.6-1725.2,4874.1-1739z"/>
	<path class="st0" d="M5345.4-1688.2c-11.8-3.9-26.1-4.4-29.3-10.5c-15.1-29.3,16.2-27.2,29.3-39.2
		C5345.4-1722.8,5345.4-1708.7,5345.4-1688.2z"/>
	<path class="st0" d="M5720-1739c0,16.7,0,30.3,0,50.2c-11.5-3.4-25.8-3.3-29.2-9.4C5674.2-1727.7,5707.5-1725.1,5720-1739z"/>
	<path class="st0" d="M5378-1737.1c9.8,12.6,39.7,4.8,31.3,31.4c-2.6,8.1-18.2,12-31.3,19.9C5378-1706.8,5378-1721.2,5378-1737.1z"
		/>
	<path class="st0" d="M4275.2-1730.5c0,19.9,0,33.2,0,46.4c-8.3-14.3-43-8.4-28.7-35.9C4249.7-1726.1,4263.6-1726.6,4275.2-1730.5z"
		/>
	<path class="st0" d="M9804.3-1720.7c6.4-2.6,10-4,14.5-5.8c-3.9-6.2-7.6-12-12.7-20c12.6,0,23.2,0,35.8,0
		c-3.7,6.9-7.3,13.4-10.8,19.9c4.2,2.1,8,3.9,13.2,6.5c-7.1,6.5-12.8,11.7-19.5,17.9C9817.9-1708.4,9812.2-1713.6,9804.3-1720.7z"/>
	<path class="st0" d="M3454.9-1709.8c-7.8,0.8-15.6,1.5-23.5,2.3c-0.5,2.2-1.1,4.4-1.7,6.6c7.4,1.9,14.8,3.8,22.2,5.8
		c-0.4,1.6-0.8,3.2-1.2,4.8c-8.8-2.4-23.9-3.3-24.9-7.6c-2.1-8.9,3.3-19.6,5.5-29.6c8.8,2.7,17.6,5.3,26.4,8
		C3456.9-1716.3,3455.9-1713,3454.9-1709.8z"/>
	<path class="st0" d="M5471.9-1709.9c-7.9,0.7-15.7,1.5-31.2,3c11.3,7.5,17.2,11.5,23.2,15.5c-0.8,1.3-1.7,2.6-2.5,3.9
		c-7.2-5.4-18.4-9.6-20.4-16.4c-1.9-6.4,4.2-19.6,10.2-22.5c5.5-2.6,15.7,4.7,23.8,7.7C5474-1715.9,5473-1712.9,5471.9-1709.9z"/>
	<path class="st0" d="M5302.9-1710.9c-8.3,1.3-16.5,2.7-31.7,5.1c11,6.7,17.2,10.4,23.3,14.1c-0.9,1.4-1.8,2.8-2.6,4.2
		c-7.3-5.2-18.6-9.1-20.9-15.9c-2.1-6.4,3.6-20.8,9.1-22.8c6.5-2.4,16.5,4.7,25,7.7C5304.3-1716,5303.6-1713.4,5302.9-1710.9z"/>
	<path class="st0" d="M5036.1-1686.4c-6.5-6.7-16.1-12.5-18.4-20.4c-1.6-5.5,5.5-18.6,10.8-19.9c6.9-1.6,15.8,5.1,23.8,8.2
		c-0.7,2.5-1.4,5-2.1,7.5c-8.3,1.4-16.6,2.8-31.7,5.3c10.8,6.7,17,10.5,23.1,14.3C5039.8-1689.8,5038-1688.1,5036.1-1686.4z"/>
	<path d="M4972.3-1685.5c-6.8-10.1-13.2-15.6-12.2-19.1c2-7.1,7.9-13,12.3-19.4c4.4,3.8,12.9,8.1,12.4,11.2
		C4983.8-1705.3,4978.6-1698.4,4972.3-1685.5z"/>
	<path d="M5575.5-1731.7c6.6,11.2,13.5,17.7,12.2,21.8c-1.9,6.3-9.4,10.9-14.5,16.2c-3.7-4.6-10.7-9.4-10.4-13.7
		C5563.3-1713.8,5568.9-1719.8,5575.5-1731.7z"/>
	<path class="st0" d="M4908-1696.7c0-13.5,0-29,0-45.9c10.7,0,20,0,29.6,0c-8,4.3-15.6,8.4-23.2,12.5c5.2,4.7,10.4,9.5,13.6,12.3
		C4922.6-1712.2,4915.5-1704.6,4908-1696.7z"/>
	<path class="st0" d="M3299.1,2432.5c-5.3,7.6-8.7,12.7-12.2,17.7c-3.1-6-8.2-11.9-8.5-18.1c-0.3-5.4,4.8-11.1,7.5-16.7
		C3289.9,2420.7,3294,2426,3299.1,2432.5z"/>
	<path class="st0" d="M8576.2-687.7c1.1-11.4,2.2-22.9,3.3-34.3c17.3,12.8,19.8,24.6,6,35.7C8582.4-686.8,8579.3-687.2,8576.2-687.7
		z"/>
	<path class="st0" d="M3675.7-1689.6c-2.6-13.9-4.5-23.6-6.3-33.3c-2.6-0.8-5.2-1.7-7.8-2.5c-4.4,10.5-8.7,21.1-14.1,33.9
		c0-12.6,0-22.8,0-32.8C3678.5-1732.5,3682.8-1727.8,3675.7-1689.6z"/>
	<path class="st0" d="M3320.7-1694.2c3.1-9.7,6.1-19.5,11.1-35.4c0,15.8,0,25.9,0,36.3c-29.7,7-32.2,4.5-28.4-34.5
		c3.5,13.7,6,23.4,8.5,33C3314.9-1694.7,3317.8-1694.4,3320.7-1694.2z"/>
	<path class="st0" d="M3287-1690.9c-8.3,0-16.7,0-27,0c0-16,0-31.9,0-47.9c1.4-0.2,2.8-0.4,4.2-0.5c0.9,13.4,1.7,26.8,2.7,41.4
		c7.1,1.6,13.7,3.2,20.3,4.7C3287.1-1692.5,3287-1691.7,3287-1690.9z"/>
	<path class="st0" d="M3610.2-1696.9c-8.7-10.7-15-18.4-21.3-26.1c7.4-1.9,14.8-3.8,22.2-5.7c0.3,1.8,0.6,3.5,0.8,5.3
		c-5.5,0.3-10.9,0.6-13.6,0.7c5.6,9.7,11,18.9,16.4,28.2c-8.2,1.2-16.4,2.5-24.5,3.7c-0.3-2-0.5-4.1-0.8-6.1
		C3596.2-1696.9,3603-1696.9,3610.2-1696.9z"/>
	<path class="st0" d="M7407-1281.3c-12.7-2.8-25.4-5.6-38.1-8.4c0.7-3.3,1.3-6.7,2-10c12.7,2.3,25.3,4.6,38,6.9
		C7408.3-1288.9,7407.6-1285.1,7407-1281.3z"/>
	<path class="st0" d="M4085.1-1735.8c15.5,9.3,43.2,9.6,30.3,36.3c-4.4-6.7-10.1-15.4-15.8-24.1c-4.9,9.1-9.7,18.2-14.5,27.1
		C4085.1-1709,4085.1-1722.2,4085.1-1735.8z"/>
	<path class="st0" d="M3404.1-1694.6c0.8-16.6,1.6-33.2,2.4-49.8c2.8,0.2,5.6,0.4,8.4,0.5c-1.4,16.7-2.8,33.3-4.3,50
		C3408.5-1694.1,3406.3-1694.3,3404.1-1694.6z"/>
	<path d="M6188-1558.4c97.1,11.4,194.2,22.4,291.2,35c10,1.3,24.5,11.1,26.6,19.5c2.5,10-5,23.4-10.8,33.9
		c-3.1,5.5-11.4,10.7-17.8,11.4c-47,5.2-94.9,15.4-134.1-24.7c-6.7-6.9-18-10.9-27.8-12.8c-52.2-10.3-104.7-19.5-157.1-29.3
		c-6.3-1.2-13.5-2.3-18.1-6.1c-4.1-3.4-6.9-10.5-6.8-15.9c0.1-2.5,8.2-6.7,12.9-7c13.7-0.9,27.5-0.3,41.2-0.3
		C6187.6-1556,6187.8-1557.2,6188-1558.4z"/>
	<path d="M6513.9-1009.7c-19.5-12.8-41.1-21.3-54-36.9c-12.2-14.8-6.2-35.6,7.3-51.3c9.1-10.6,18.1-12.4,28.4-1.2
		c12.6,13.7,26.7,26.1,38.2,40.7c5.2,6.6,10.2,19,7.4,25C6536.9-1024.6,6525.5-1019.2,6513.9-1009.7z"/>
	<path d="M8007.6-1385.8c33.7,2.8,48.9,13.9,45.7,35.6c-3,20.4-36.9,41.7-56.5,33.3c-13-5.6-25.4-14.5-35.4-24.6
		c-11.1-11.2-9-25.3,5.2-32.4C7979.1-1380.2,7993.8-1382,8007.6-1385.8z"/>
	<path d="M6424.4-1357c14.4-3.6,28.5-9,43.1-10.4c13.4-1.3,27.2,1.1,40.7,3.1c4.6,0.7,8.5,5.3,12.8,8.1c-2.5,3.8-4.3,8.7-7.8,11.2
		C6492.5-1330.6,6447.2-1332.4,6424.4-1357z"/>
	<path d="M6468.2-1261.9c-9.7,7.2-18.9,16.8-30.1,21.5c-8.4,3.6-19.5,1.9-29.2,0.6c-2.7-0.4-7.4-10.1-6.3-11.3
		c6.5-7.4,13.4-16.9,22-19.3c12.3-3.3,26.2-1.2,39.4-1C6465-1271.2,6465.9-1267.2,6468.2-1261.9z"/>
	<path id="there" d="M7842.5-1268.2c-12.4,9.2-24.1,19.7-25.4,18.6c-8.6-7.6-14.9-17.8-22-27.1c6.3-4.4,14-13.6,18.7-12.3
		C7822.5-1286.6,7829.6-1278,7842.5-1268.2z"/>
	<path id="hello" d="M6925.4,581.9c-10.7,8-17.4,16.7-21.9,15.6c-6.7-1.5-15-9-16.7-15.5c-1.1-4.4,8.8-16.8,12.1-16.2
		C6906.8,567.2,6913.7,574.2,6925.4,581.9z"/>

		<animate  fill="freeze" xlink:href="#p1" attributeName="d" attributeType="XML" from="" to="" dur="10s" additive="replace" accumulate="none" calcMode="linear" restart="always">
		</animate>
</g>
</svg>
