<?xml version="1.0" encoding="utf-8"?>
<!-- Generator: Adobe Illustrator 20.0.0, SVG Export Plug-In . SVG Version: 6.00 Build 0)  -->
<svg version="1.1" xmlns="http://www.w3.org/2000/svg" xmlns:xlink="http://www.w3.org/1999/xlink" x="0px" y="0px"
	 viewBox="0 0 1080 1080" style="enable-background:new 0 0 1080 1080;" xml:space="preserve">
<style type="text/css">
	.st0{fill:#E3E1DC;}
	.st1{fill:#F1EEEB;}
	.st2{fill:#EB6455;}
	.st3{fill:#FF9C8C;}
	.st4{fill:#FFCF52;}
	.st5{fill:#008161;}
	.st6{fill:#005E46;}
	.st7{fill:#FF9D2D;}
	.st8{fill:#923710;}
	.st9{fill:#ED7420;}
	.st10{fill:#811C25;}
	.st11{fill:#FFFFFF;}
	.st12{fill:#8DCFB0;}
	.st13{fill:#2FAF87;}
	.st14{fill:none;stroke:#000000;stroke-width:3;stroke-linecap:round;stroke-linejoin:round;stroke-miterlimit:10;}
	.st15{fill:#AA272F;}
	.st16{fill:#FFC5B8;}
	.st17{fill:none;stroke:#FFFFFF;stroke-width:3;stroke-linecap:round;stroke-linejoin:round;stroke-miterlimit:10;}
	.st18{fill:none;stroke:#FF9C8C;stroke-width:3;stroke-linecap:round;stroke-linejoin:round;stroke-miterlimit:10;}
	.st19{fill:none;stroke:#FFC5B8;stroke-width:3;stroke-linecap:round;stroke-linejoin:round;stroke-miterlimit:10;}
</style>
<g id="Stamp_Edge">
	<path class="st0" d="M972.5,955.9v-28.5c-9.2,0-16.6-7.5-16.6-16.6s7.5-16.6,16.6-16.6v-28.5c-9.2,0-16.6-7.5-16.6-16.6
		c0-9.2,7.5-16.6,16.6-16.6v-28.5c-9.2,0-16.6-7.5-16.6-16.6c0-9.2,7.5-16.6,16.6-16.6V742c-9.2,0-16.6-7.5-16.6-16.6
		s7.5-16.6,16.6-16.6v-28.5c-9.2,0-16.6-7.5-16.6-16.6s7.5-16.6,16.6-16.6v-28.5c-9.2,0-16.6-7.5-16.6-16.6
		c0-9.2,7.5-16.6,16.6-16.6v-28.5c-9.2,0-16.6-7.5-16.6-16.6c0-9.2,7.5-16.6,16.6-16.6v-28.5c-9.2,0-16.6-7.5-16.6-16.6
		c0-9.2,7.5-16.6,16.6-16.6v-28.5c-9.2,0-16.6-7.5-16.6-16.6s7.5-16.6,16.6-16.6v-28.5c-9.2,0-16.6-7.5-16.6-16.6
		c0-9.2,7.5-16.6,16.6-16.6v-28.5c-9.2,0-16.6-7.5-16.6-16.6c0-9.2,7.5-16.6,16.6-16.6v-28.5c-9.2,0-16.6-7.5-16.6-16.6
		c0-9.2,7.5-16.6,16.6-16.6v-28.5c-9.2,0-16.6-7.5-16.6-16.6c0-9.2,7.5-16.6,16.6-16.6v-28.5c-9.2,0-16.6-7.5-16.6-16.6v0h-28.5v0
		c0,9.2-7.5,16.6-16.6,16.6c-9.2,0-16.6-7.5-16.6-16.6v0h-28.5v0c0,9.2-7.5,16.6-16.6,16.6s-16.6-7.5-16.6-16.6v0h-28.5v0
		c0,9.2-7.5,16.6-16.6,16.6c-9.2,0-16.6-7.5-16.6-16.6v0H742v0c0,9.2-7.5,16.6-16.6,16.6c-9.2,0-16.6-7.5-16.6-16.6v0h-28.5v0
		c0,9.2-7.5,16.6-16.6,16.6c-9.2,0-16.6-7.5-16.6-16.6v0h-28.5v0c0,9.2-7.5,16.6-16.6,16.6s-16.6-7.5-16.6-16.6v0h-28.5v0
		c0,9.2-7.5,16.6-16.6,16.6s-16.6-7.5-16.6-16.6v0h-28.5v0c0,9.2-7.5,16.6-16.6,16.6c-9.2,0-16.6-7.5-16.6-16.6v0h-28.5v0
		c0,9.2-7.5,16.6-16.6,16.6c-9.2,0-16.6-7.5-16.6-16.6v0h-28.5v0c0,9.2-7.5,16.6-16.6,16.6s-16.6-7.5-16.6-16.6v0h-28.5v0
		c0,9.2-7.5,16.6-16.6,16.6s-16.6-7.5-16.6-16.6v0h-28.5v0c0,9.2-7.5,16.6-16.6,16.6c-9.2,0-16.6-7.5-16.6-16.6v0h-28.5v0
		c0,9.2-7.5,16.6-16.6,16.6c-9.2,0-16.6-7.5-16.6-16.6v0h-28.5v0c0,9.2-7.5,16.6-16.6,16.6v28.5c9.2,0,16.6,7.5,16.6,16.6
		c0,9.2-7.5,16.6-16.6,16.6v28.5c9.2,0,16.6,7.5,16.6,16.6c0,9.2-7.5,16.6-16.6,16.6v28.5c9.2,0,16.6,7.5,16.6,16.6
		c0,9.2-7.5,16.6-16.6,16.6V338c9.2,0,16.6,7.5,16.6,16.6c0,9.2-7.5,16.6-16.6,16.6v28.5c9.2,0,16.6,7.5,16.6,16.6
		s-7.5,16.6-16.6,16.6v28.5c9.2,0,16.6,7.5,16.6,16.6c0,9.2-7.5,16.6-16.6,16.6v28.5c9.2,0,16.6,7.5,16.6,16.6
		c0,9.2-7.5,16.6-16.6,16.6v28.5c9.2,0,16.6,7.5,16.6,16.6c0,9.2-7.5,16.6-16.6,16.6v28.5c9.2,0,16.6,7.5,16.6,16.6
		s-7.5,16.6-16.6,16.6v28.5c9.2,0,16.6,7.5,16.6,16.6s-7.5,16.6-16.6,16.6v28.5c9.2,0,16.6,7.5,16.6,16.6c0,9.2-7.5,16.6-16.6,16.6
		v28.5c9.2,0,16.6,7.5,16.6,16.6c0,9.2-7.5,16.6-16.6,16.6v28.5c9.2,0,16.6,7.5,16.6,16.6s-7.5,16.6-16.6,16.6v28.5
		c9.2,0,16.6,7.5,16.6,16.6h28.5c0-9.2,7.5-16.6,16.6-16.6c9.2,0,16.6,7.5,16.6,16.6h28.5c0-9.2,7.5-16.6,16.6-16.6
		c9.2,0,16.6,7.5,16.6,16.6h28.5c0-9.2,7.5-16.6,16.6-16.6s16.6,7.5,16.6,16.6H338c0-9.2,7.5-16.6,16.6-16.6s16.6,7.5,16.6,16.6
		h28.5c0-9.2,7.5-16.6,16.6-16.6c9.2,0,16.6,7.5,16.6,16.6h28.5c0-9.2,7.5-16.6,16.6-16.6c9.2,0,16.6,7.5,16.6,16.6h28.5
		c0-9.2,7.5-16.6,16.6-16.6s16.6,7.5,16.6,16.6h28.5c0-9.2,7.5-16.6,16.6-16.6s16.6,7.5,16.6,16.6h28.5c0-9.2,7.5-16.6,16.6-16.6
		c9.2,0,16.6,7.5,16.6,16.6h28.5c0-9.2,7.5-16.6,16.6-16.6c9.2,0,16.6,7.5,16.6,16.6h28.5c0-9.2,7.5-16.6,16.6-16.6
		c9.2,0,16.6,7.5,16.6,16.6h28.5c0-9.2,7.5-16.6,16.6-16.6s16.6,7.5,16.6,16.6h28.5c0-9.2,7.5-16.6,16.6-16.6
		c9.2,0,16.6,7.5,16.6,16.6h28.5C955.9,963.3,963.3,955.9,972.5,955.9z"/>
	<path class="st1" d="M927.4,107.5L927.4,107.5c0,9.2-7.5,16.6-16.6,16.6c-9.2,0-16.6-7.5-16.6-16.6v0h-28.5v0
		c0,9.2-7.5,16.6-16.6,16.6c-9.2,0-16.6-7.5-16.6-16.6v0h-28.5v0c0,9.2-7.5,16.6-16.6,16.6s-16.6-7.5-16.6-16.6v0H742v0
		c0,9.2-7.5,16.6-16.6,16.6s-16.6-7.5-16.6-16.6v0h-28.5v0c0,9.2-7.5,16.6-16.6,16.6c-9.2,0-16.6-7.5-16.6-16.6v0h-28.5v0
		c0,9.2-7.5,16.6-16.6,16.6s-16.6-7.5-16.6-16.6v0h-28.5v0c0,9.2-7.5,16.6-16.6,16.6c-9.2,0-16.6-7.5-16.6-16.6v0h-28.5v0
		c0,9.2-7.5,16.6-16.6,16.6s-16.6-7.5-16.6-16.6v0h-28.5v0c0,9.2-7.5,16.6-16.6,16.6c-9.2,0-16.6-7.5-16.6-16.6v0h-28.5v0
		c0,9.2-7.5,16.6-16.6,16.6s-16.6-7.5-16.6-16.6v0h-28.5v0c0,9.2-7.5,16.6-16.6,16.6s-16.6-7.5-16.6-16.6v0h-28.5v0
		c0,9.2-7.5,16.6-16.6,16.6c-9.2,0-16.6-7.5-16.6-16.6v0h-28.5v0c0,9.2-7.5,16.6-16.6,16.6c-9.2,0-16.6-7.5-16.6-16.6v0h-28.5v0
		c0,9.2-7.5,16.6-16.6,16.6v28.5c9.2,0,16.6,7.5,16.6,16.6s-7.5,16.6-16.6,16.6v28.5c9.2,0,16.6,7.5,16.6,16.6s-7.5,16.6-16.6,16.6
		v28.5c9.2,0,16.6,7.5,16.6,16.6c0,9.2-7.5,16.6-16.6,16.6V338c9.2,0,16.6,7.5,16.6,16.6c0,9.2-7.5,16.6-16.6,16.6v28.5
		c9.2,0,16.6,7.5,16.6,16.6s-7.5,16.6-16.6,16.6v28.5c9.2,0,16.6,7.5,16.6,16.6c0,9.2-7.5,16.6-16.6,16.6v28.5
		c9.2,0,16.6,7.5,16.6,16.6c0,9.2-7.5,16.6-16.6,16.6v28.5c9.2,0,16.6,7.5,16.6,16.6c0,9.2-7.5,16.6-16.6,16.6v28.5
		c9.2,0,16.6,7.5,16.6,16.6s-7.5,16.6-16.6,16.6v28.5c9.2,0,16.6,7.5,16.6,16.6c0,9.2-7.5,16.6-16.6,16.6v28.5
		c9.2,0,16.6,7.5,16.6,16.6c0,9.2-7.5,16.6-16.6,16.6v28.5c9.2,0,16.6,7.5,16.6,16.6s-7.5,16.6-16.6,16.6v28.5
		c9.2,0,16.6,7.5,16.6,16.6c0,9.2-7.5,16.6-16.6,16.6v28.5c4.6,0,8.8,1.9,11.8,4.9l841.5-841.5c-3-3-4.9-7.2-4.9-11.8v0H927.4z"/>
</g>
<g id="Background">
	<path class="st2" d="M206.9,898.1h666.2c13.8,0,25-11.2,25-25V206.9c0-13.8-11.2-25-25-25H206.9c-13.8,0-25,11.2-25,25v666.2
		C181.9,886.9,193.1,898.1,206.9,898.1z"/>
</g>
<g id="Illustration">
	<path class="st3" d="M762.1,479.2c0,0-69.7,0-82.8,0c-16.1,0-13.2-15-26.8-15h-12.1c-13.7,0-8.7-12.4-23.8-12.4
		c-18.7,0-58.6,0-58.6,0v-22.7c0,0,26.3,0,36.8,0c18.6,0,13.1-14.3,29.7-14.3c11.9,0,35.3,0,43.4,0c6.4,0,6.5-9.4,0-9.4
		c-4.1,0-6.4,0-9.9,0c-6.3,0-6.3-8.8,0-8.8c6.7,0,76.4,0,87.8,0c12.4,0,12.1,17.6,0,17.6c-5.5,0-5.4,8.7,0,8.7c6.1,0,77.1,0,83.9,0
		c9.1,0,8.9,12.1,0,12.1h-15.4c-23.8,0-22,25.1-43.9,25.1h-8.1c-4.9,0-4.7,7.3,0,7.3C769.7,467.4,769.6,479.2,762.1,479.2z"/>
	<circle class="st4" cx="537.9" cy="525.2" r="146.4"/>
	<path class="st5" d="M530.8,617.9c0-80.9-65.6-146.4-146.4-146.4c-80.9,0-146.4,65.6-146.4,146.4c0,11.6,0,137.2,0,137.2l146.4,9.2
		l146.4-12.9C530.8,751.4,530.8,629.5,530.8,617.9z"/>
	<path class="st5" d="M837.9,617.9c0-80.9-65.6-146.4-146.4-146.4S545.1,537,545.1,617.9c0,11.5,0,117.7,0,117.7l146.4,28.7
		l146.4-9.2C837.9,755.1,837.9,629.3,837.9,617.9z"/>
	<path class="st6" d="M530.8,595c0,0-65.6,0-146.4,0c-80.9,0-146.4,65.6-146.4,146.4c0,11.6,0,20.1,0,20.1l146.4,9.2l146.4-12.9V595
		z"/>
	<path class="st6" d="M837.9,741.4c0-80.9-65.6-146.4-146.4-146.4s-146.4,0-146.4,0v145.8l146.4,28.7l146.4-9.2
		C837.9,760.3,837.9,752.9,837.9,741.4z"/>
	<g>
		<path class="st6" d="M317.9,480.6c0,0,69.7,0,82.8,0c16.1,0,13.2-15,26.8-15h12.1c13.7,0,8.7-12.2,23.8-12.2c18.7,0,58.6,0,58.6,0
			v-22.9c0,0-26.3,0-36.8,0c-18.6,0-13.1-14.3-29.7-14.3c-11.9,0-35.3,0-43.4,0c-6.4,0-6.5-9.4,0-9.4c4.1,0,6.4,0,9.9,0
			c6.3,0,6.3-8.8,0-8.8c-6.7,0-76.4,0-87.8,0c-12.4,0-12.1,17.6,0,17.6c5.5,0,5.4,8.7,0,8.7c-6.1,0-77.1,0-83.9,0
			c-9.1,0-8.9,12.1,0,12.1h15.4c23.8,0,22,25.1,43.9,25.1h8.1c4.9,0,4.7,7.3,0,7.3C310.3,468.8,310.4,480.6,317.9,480.6z"/>
		<path class="st4" d="M461.6,551.8c-2.7,0-5-1.6-6.6-5.1l-10.4-24.6c-3.5-8.3-10.3-16.1-18.6-19.8l-13.2-5.8
			c-9.2-4.1-16.5-11.6-20.4-20.9l-5.5-13.4c-3.8-9.1-12.7-15.1-22.5-15.1H356l18,43.6h-10.1c-3,0-6.6-2.9-8.3-6.9
			c-1.1-2.4-1-1.9-2.8-6.3c-1-2.3-3.2-3.7-5.6-3.7h-3.4c0,0,3.4,8.2,5.5,12.9c2.5,5.5,8,11,14.7,11h13.9c4.1,5.9,9.9,10.6,16.6,13.6
			c8.2,3.7,14.4,9.2,17.9,17.5l7.5,17.8v0c0.9,2,0.1,5.2-2.7,5.2c-4.4,0-7.9,3.5-7.9,7.9v1.3h60.3v-1.3
			C469.5,555.4,466,551.8,461.6,551.8z"/>
	</g>
	<g>
		<g>
			<g>
				<rect x="488.4" y="448.2" class="st7" width="99.9" height="112.9"/>
				<rect x="488.4" y="552.6" class="st8" width="99.9" height="8.5"/>
				<rect x="516.5" y="444.1" class="st9" width="43.8" height="108.5"/>
				<polygon points="545,552.6 531.8,552.6 531.7,527.8 545,527.8 				"/>
				<path class="st10" d="M600.6,440.9c-2.1,2.1-5.5,3.4-8.1,3.4c-7.9,0-13.8-2.6-19.2-9.1v-15.7c0,0,0-11.7,0-14
					c0-2.3-3.1-2.9-4.1-1c-0.9,1.6-5.4,10-8.2,15h-0.7h-27.1h-16.8h-0.7c-2.7-5-7.3-13.3-8.2-15c-1-1.8-4.1-1.2-4.1,1
					c0,2.2,0,14,0,14v15.7c-5.4,6.5-11.3,9.1-19.2,9.1c-2.7,0-6.1-1.3-8.1-3.4c-1.4-1.4-5-2.1-7.4-0.4c0,0,2.1,3.3,3.1,5.1
					c2.7,4.6,7.6,7.4,12.9,7.4h48.5H592c5.3,0,10.2-2.8,12.9-7.4c1-1.8,3.1-5.1,3.1-5.1C605.6,438.8,602.1,439.4,600.6,440.9z"/>
				<path class="st9" d="M577.2,514.2c0-2.2-1.8-4-4-4c-2.2,0-4,1.8-4,4c0,0.7,0,38.5,0,38.5h8C577.2,552.6,577.2,514.9,577.2,514.2
					z"/>
				<path class="st9" d="M507.5,514.2c0-2.2-1.8-4-4-4c-2.2,0-4,1.8-4,4c0,0.7,0,38.5,0,38.5h8C507.5,552.6,507.5,514.9,507.5,514.2
					z"/>
				<path class="st10" d="M615.7,503.3c-2.1,2.1-5.5,3.4-8.1,3.4c-7.9,0-13.8-2.6-19.2-9.1v-15.7h-9.4h-18.6h-27.1h-16.8h-3.5h-24.5
					v15.7c-5.4,6.5-11.3,9.1-19.2,9.1c-2.7,0-6.1-1.3-8.1-3.4c-1.4-1.4-5-2.1-7.4-0.4c0,0,2.1,3.3,3.1,5.1c2.7,4.6,7.6,7.4,12.9,7.4
					h63.5h73.9c5.3,0,10.2-2.8,12.9-7.4c1-1.8,3.1-5.1,3.1-5.1C620.7,501.2,617.1,501.9,615.7,503.3z"/>
			</g>
			<rect x="560.3" y="465.3" class="st11" width="13" height="16.6"/>
			<rect x="531.9" y="465.3" class="st11" width="13" height="16.6"/>
			<rect x="503.5" y="465.3" class="st11" width="13" height="16.6"/>
		</g>
		<rect x="478.4" y="561.1" class="st12" width="119.9" height="8.5"/>
		<rect x="468.4" y="569.6" class="st13" width="139.9" height="8.5"/>
		<rect x="458.4" y="578" class="st12" width="159.9" height="8.5"/>
		<rect x="448.4" y="586.5" class="st13" width="179.9" height="8.5"/>
	</g>
	<path class="st12" d="M664.8,631.4c0-20.1-16.3-36.5-36.5-36.5c-5.1,0-174.8,0-179.9,0c-20.1,0-36.5,16.3-36.5,36.5V658h252.8
		V631.4z"/>
	<path class="st11" d="M703,493.2c-5.4,0-17.4,0-28.8,0l-19.3-12.9v-17.6c-4.3,0-7.8,3.5-7.8,7.8v4.7l-9.7-6.5
		c-0.8-0.5-1.3-1.5-1.3-2.4v-15.4c-4.3,0-7.8,3.5-7.8,7.7v9.9c0,2.6,1.3,5,3.4,6.4l27.4,18.2c-7.1,0-12.1,0-12.1,0
		c0,4.5,3.8,7.9,7.9,7.9s36.7,0,41.2,0c3.7,0,5.1,2.4,5.1,5c0,1.8,0,6.1,0,6.1h12.1l2.6,8c0,0,0-12.3,0-14.1
		C716,499.8,711.3,493.2,703,493.2z"/>
	<g>
		<path class="st2" d="M360.6,584.3V645h12.6v-73.3l0,0C366.2,571.7,360.6,577.3,360.6,584.3z"/>
		<path class="st2" d="M348,572.6v60.7h12.6V560l0,0C353.6,560,348,565.7,348,572.6z"/>
		<path class="st11" d="M333.7,501.2c-12.5,0-18.4,4.7-23.3,11.7c-4.2,6.2-11.7,7-19.5,5.1c0,8.6,6.8,15.6,15.6,15.6
			c15.8,0,15.5-12.2,27.4-12.2L333.7,501.2z"/>
		<line class="st14" x1="333.7" y1="501.2" x2="333.7" y2="591.2"/>
		<path class="st2" d="M335.3,565.8v33.3H348v-46h0C341,553.2,335.3,558.8,335.3,565.8z"/>
		<path class="st2" d="M322.7,562.9v28h12.6v-40.6l0,0C328.4,550.3,322.7,555.9,322.7,562.9z"/>
		<path class="st2" d="M310.1,562.9v21l12.6,5.9v-39.5h0C315.7,550.3,310.1,555.9,310.1,562.9z"/>
	</g>
	<path class="st11" d="M716,627.5l-16.2-12.7l-7.5,6.3c4.7,7.1,7,15.6,5.1,21.3c-1.9,5.7-7.3,9.5-13.8,9.5c-5.9,0-73.9,0-122.1,0
		c-27.2,0-48,0-48,0c-49.1,0-119.1,0-125.1,0c-8.8,0-15.2-6.7-15.2-15.1c0-6-11.1-3.3-6.5-10.4l-7.9-9.2l0.1,10.3v51.7l154.5,1.8
		v0.6l24-0.3l24,0.3v-0.6l154.5-1.8V627.5z"/>
	<path class="st10" d="M716,589.6c0-16,0-45.4,0-45.4l22.7-26.9l-10.2-8h-21.2c-15.9,0-28.8,12.9-28.8,28.8v51.5
		c0,26.7,22.9,30.2,22.9,56c0,9.1-6.9,17.1-17.1,17.1c-10.7,0-280.1,0-291.1,0c-12.3,0-19.9-8.6-19.9-20.3v-26.5
		c0-17.5-13.8-32-32.1-32c-13.5,0-31,0-31,0c0,8,5.5,14.2,14.2,14.2c11.8,0,19,7.2,19,19.2c0,12.8,0,19.8,0,36.8
		c0,43.1,33,78.8,80,78.8c38.5,0,226.5-0.3,244.7-0.3c39,0,72.3-36,72.3-73v-7.7C740.4,620.6,716,615.9,716,589.6z"/>
	<path class="st15" d="M716,589.6c0-6.7,0-15.8,0-24.1l-12.5-0.4c0,0,0,29.1,0,44.1c0,18,11.3,21.2,11.3,39.2v3.5
		c0,13.5-9.4,22.6-22.2,22.6c-11,0-294.3,0-305.3,0c-12.8,0-22.2-9.1-22.2-22.6v-29.1c0-16.2-12.7-24.8-24.2-24.8
		c-3.1,0-9.9,0-16.6,0c11.8,0,19,7.2,19,19.2c0,12.8,0,33.8,0,50.8c0,40.8,29.5,74.8,72.5,78.4c12.1,0,242.7,0,252.3,0
		c39,0,72.3-36,72.3-73v-21.7C740.4,620.6,716,615.9,716,589.6z"/>
	<g>
		<path class="st15" d="M343.3,617.4c0,7.8,0,13.5,0,20.7h21.7v-15.2c0-16.2-12.7-24.8-24.2-24.8c-3.1,0-9.9,0-16.6,0
			C336.1,598.1,343.3,605.4,343.3,617.4z"/>
		<path class="st16" d="M343.3,664.7h25.2c-2.2-3.5-3.4-7.8-3.4-12.7v-0.6h-21.7V664.7z"/>
	</g>
	<path class="st16" d="M365.1,638v-13.3h-21.7c0,4.5,0,8.6,0,13.3H365.1z"/>
	<path class="st3" d="M365.1,651.3V638h-21.7c0,4.5,0,8.6,0,13.3H365.1z"/>
	<path class="st3" d="M343.3,617.4c0,2.7,0,5.1,0,7.4h21.7v-1.9c0-4.4-0.9-8.2-2.5-11.4h-19.9C343.1,613.2,343.3,615.2,343.3,617.4z
		"/>
	<path class="st16" d="M342.7,611.4h19.9c-4.3-8.8-13.3-13.3-21.7-13.3c-3.1,0-9.9,0-16.6,0C334,598.1,340.6,603,342.7,611.4z"/>
	<path class="st16" d="M716,571.5h-12.5c0,3.5,0,8.2,0,13.3H716C716,580.7,716,576.1,716,571.5z"/>
	<path class="st3" d="M716,589.6c0-1.5,0-3.1,0-4.8h-12.5c0,4.3,0,9,0,13.3h13.5C716.3,595.5,716,592.7,716,589.6z"/>
	<path class="st16" d="M722.9,611.4c-2.6-4-4.8-8.2-6-13.3h-13.5c0,4,0,7.9,0,11c0,0.8,0,1.5,0.1,2.3H722.9z"/>
	<path class="st3" d="M722.9,611.4h-19.4c0.3,5.6,1.8,9.6,3.5,13.3h25.3C729.3,620,725.9,615.9,722.9,611.4z"/>
	<path class="st16" d="M732.3,624.7H707c2.1,4.4,4.7,8.2,6.2,13.3h25.3C737,632.9,734.8,628.6,732.3,624.7z"/>
	<path class="st3" d="M714.8,648.4v2.9h25.7c-0.1-5.1-0.7-9.4-1.9-13.3h-25.3C714.2,641,714.8,644.3,714.8,648.4z"/>
	<path class="st16" d="M714.8,651.9c0,4.9-1.3,9.2-3.4,12.7h29.1v-12.7c0-0.2,0-0.4,0-0.6h-25.7V651.9z"/>
	<g>
		<g>
			<path class="st15" d="M708.6,540.4h79.2v37.5v0.7c0,3.5-2.9,6.4-6.4,6.4H727c-10.2,0-18.4-8.2-18.4-18.4V540.4z"/>
			<path class="st15" d="M677.6,545.9H716v-12.8h-51.2l0,0C664.8,540.1,670.5,545.9,677.6,545.9z"/>
			<path class="st15" d="M664,558.7h49.3v-12.8h-62.1l0,0C651.2,553,657,558.7,664,558.7z"/>
			<path class="st15" d="M650.5,571.5h61.6v-12.8h-74.4l0,0C637.7,565.8,643.4,571.5,650.5,571.5z"/>
			<path d="M741.5,562.7c-3.4-1-3.8-7.3-0.5-7.8c1.9-0.3,4.2,1,5.9,2.2c0-3.3,0-6.5,0-9.1l40.9-2.8v27.1l-40.9,2.8
				c0-0.6,0-2.6,0-5.3C746.9,566.4,744.4,563.5,741.5,562.7z"/>
			<path class="st3" d="M787.5,549l0-14.7c0,0-10.5,0-23.4,0c-6.7-0.2-12.1-5.8-12.1-12.6c0-6.9-5.6-12.5-12.5-12.5
				c-5.8,0-5.1,0-10.9,0c-6.9,0-12.5,5.6-12.5,12.5c0,1,0,7,0,12.6c-8.1,0-14.7,6.6-14.7,14.7c0,8.1,6.6,14.7,14.7,14.7
				c4.7,0,71.8,0,71.8,0L787.5,549z"/>
			<path d="M725.5,560.2c-2.6,2.2-5.9,3.5-9.6,3.5c0,8.5,7,14.6,16,14.6h55.8v-18.2H725.5z"/>
			<path class="st15" d="M787.8,569.2c5.8,0,9.1,7.9,16.1,7.9c4.1,0,4.1-5.6,0-5.6c-5.2,0-8.6-7.8-16.1-7.8c-1.7,0-7.2,0-7.2,0
				l-0.1,5.5C780.5,569.2,785.5,569.2,787.8,569.2z"/>
			<g>
				<path class="st11" d="M784.6,563.7l-3.2,12.1c-0.3,1-1.6,1-1.9,0l-3.2-12.1c-0.2-0.6,0.3-1.2,0.9-1.2h6.4
					C784.3,562.5,784.7,563.1,784.6,563.7z"/>
			</g>
			<path class="st11" d="M776.2,560.2l-4.1,15.7c-0.3,1-1.6,1-1.9,0l-4.1-15.7H776.2z"/>
			<path class="st11" d="M766.1,560.2l-4.1,15.7c-0.3,1-1.6,1-1.9,0l-4.1-15.7H766.1z"/>
			<path class="st11" d="M756,560.2l-4.1,15.7c-0.3,1-1.6,1-1.9,0l-4.1-15.7H756z"/>
			<path class="st11" d="M745.8,560.2l-4.1,15.7c-0.3,1-1.6,1-1.9,0l-4.1-15.7H745.8z"/>
			<path class="st11" d="M735.7,560.2l-4.1,15.7c-0.3,1-1.6,1-1.9,0l-4.1-15.7H735.7z"/>
			<path class="st16" d="M791.3,530.8c-4.8,0-8.6,3.9-8.6,8.6c-3.3,0-6.2,0-7.4,0c-6.7,0-12.2,5.4-12.2,12.2
				c0,6.7,5.4,12.2,12.2,12.2c3.9,0,8.6,0,12.5,0c6.7,0,12.2-5.4,12.2-12.2c0-6.7,0-12.2,0-12.2
				C799.9,534.6,796.1,530.8,791.3,530.8z"/>
			<g>
				<path d="M791.2,543.1c-0.9-0.9-2.2-0.9-3.1,0c-0.9,0.9-0.9,2.2,0,3.1c0.1,0.1,0.2,0.2,0.4,0.3c0.1,0.1,4.3,2.5,4.4,2.6
					c0.6,0.3,1.3,0.2,1.8-0.3c0.6-0.6,0.6-1.6,0-2.2C794.3,546.1,791.7,543.5,791.2,543.1z"/>
			</g>
		</g>
		<path d="M729.2,524c1.2,1.2,9.7,9.7,10.9,10.9c0.9,0.9,2.1,0.6,2.1-0.4c-0.1-2.6-1.3-5.9-4-8.5c-2.7-2.7-5.9-3.9-8.5-4
			C728.7,521.9,728.3,523.1,729.2,524z"/>
	</g>
	<path class="st11" d="M247.4,746c-5.7,0-9.5,3.8-9.5,9.4v69.8c0,5.7,3.8,9.4,9.5,9.4h35c8.7,0,16-4.4,16-12.5
		c0-4.7-1.6-8.9-4.6-12.1c-0.8-0.7-1.7-1.1-2.8-1.1c-2.2,0-3.6,1.8-3.6,3.6c0,2.1-1.5,4.2-4,4.2s-4.1-1.8-4.1-4.2
		c0-3,1.1-5.6,3.1-7.5c-0.5,0-1-0.1-1.5-0.1c-3.8,0-6.5,2.8-6.5,6.1c0,3.6-2.6,7.2-7,7.2s-7.1-3.1-7.1-7.2c0-11,8.9-18.9,22.1-18.9
		c20,0,32,8.6,42.1,20.4c9.4,10.9,21.5,22,35.8,22c8.7,0,16-4.4,16-12.5c0-4.7-1.6-8.9-4.6-12.1c-0.8-0.7-1.7-1.1-2.8-1.1
		c-2.2,0-3.6,1.8-3.6,3.6c0,2.1-1.5,4.2-4,4.2s-4.1-1.8-4.1-4.2c0-3,1.1-5.6,3.1-7.5c-0.5,0-1-0.1-1.5-0.1c-3.8,0-6.5,2.8-6.5,6.1
		c0,3.6-2.6,7.2-7,7.2s-7.1-3.1-7.1-7.2c0-11,8.9-18.9,22.1-18.9c20,0,32,8.6,42.1,20.4c9.4,10.9,21.5,22,35.8,22
		c8.7,0,16-4.4,16-12.5c0-4.7-1.6-8.9-4.6-12.1c-0.8-0.7-1.7-1.1-2.8-1.1c-2.2,0-3.6,1.8-3.6,3.6c0,2.1-1.5,4.2-4,4.2
		s-4.1-1.8-4.1-4.2c0-3,1.1-5.6,3.1-7.5c-0.5,0-1-0.1-1.5-0.1c-3.8,0-6.5,2.8-6.5,6.1c0,3.6-2.6,7.2-7,7.2s-7.1-3.1-7.1-7.2
		c0-11,8.9-18.9,22.1-18.9c20,0,32,8.6,42.1,20.4c9.4,10.9,21.5,22,35.8,22c8.7,0,16-4.4,16-12.5c0-4.7-1.6-8.9-4.6-12.1
		c-0.8-0.7-1.7-1.1-2.8-1.1c-2.2,0-3.6,1.8-3.6,3.6c0,2.1-1.5,4.2-4,4.2s-4.1-1.8-4.1-4.2c0-3,1.1-5.6,3.1-7.5c-0.5,0-1-0.1-1.5-0.1
		c-3.8,0-6.5,2.8-6.5,6.1c0,3.6-2.6,7.2-7,7.2s-7.1-3.1-7.1-7.2c0-11,8.9-18.9,22.1-18.9c20,0,32,8.6,42.1,20.4
		c9.4,10.9,21.5,22,35.8,22c8.7,0,16-4.4,16-12.5c0-4.7-1.6-8.9-4.6-12.1c-0.8-0.7-1.7-1.1-2.8-1.1c-2.2,0-3.6,1.8-3.6,3.6
		c0,2.1-1.5,4.2-4,4.2s-4.1-1.8-4.1-4.2c0-3,1.1-5.6,3.1-7.5c-0.5,0-1-0.1-1.5-0.1c-3.8,0-6.5,2.8-6.5,6.1c0,3.6-2.6,7.2-7,7.2
		s-7.1-3.1-7.1-7.2c0-11,8.9-18.9,22.1-18.9c20,0,32,8.6,42.1,20.4c9.4,10.9,21.5,22,35.8,22c8.7,0,16-4.4,16-12.5
		c0-4.7-1.6-8.9-4.6-12.1c-0.8-0.7-1.7-1.1-2.8-1.1c-2.2,0-3.6,1.8-3.6,3.6c0,2.1-1.5,4.2-4,4.2s-4.1-1.8-4.1-4.2
		c0-3,1.1-5.6,3.1-7.5c-0.5,0-1-0.1-1.5-0.1c-3.8,0-6.5,2.8-6.5,6.1c0,3.6-2.6,7.2-7,7.2s-7.1-3.1-7.1-7.2c0-11,8.9-18.9,22.1-18.9
		c20,0,32,8.6,42.1,20.4c9.4,10.9,21.5,22,35.8,22c8.7,0,16-4.4,16-12.5c0-4.7-1.6-8.9-4.6-12.1c-0.8-0.7-1.7-1.1-2.8-1.1
		c-2.2,0-3.6,1.8-3.6,3.6c0,2.1-1.5,4.2-4,4.2s-4.1-1.8-4.1-4.2c0-3,1.1-5.6,3.1-7.5c-0.5,0-1-0.1-1.5-0.1c-3.8,0-6.5,2.8-6.5,6.1
		c0,3.6-2.6,7.2-7,7.2s-7.1-3.1-7.1-7.2c0-11,8.9-18.9,22.1-18.9c20,0,32,8.6,42.1,20.4c9.4,10.9,21.5,22,35.8,22
		c5.7,0,9.5-3.8,9.5-9.4v-69.8c0-5.7-3.8-9.4-9.5-9.4c-14.3,0-26.4-11.1-35.8-22c-10.1-11.8-22.1-20.4-42.1-20.4
		c-13.2,0-22.1,7.9-22.1,18.9c0,4.1,2.8,7.2,7.1,7.2s7-3.6,7-7.2c0-3.4,2.8-6.1,6.5-6.1c0.5,0,1,0,1.5,0.1c-2,1.9-3.1,4.5-3.1,7.5
		c0,2.4,1.6,4.2,4.1,4.2s4-2.1,4-4.2c0-1.8,1.4-3.6,3.6-3.6c1.1,0,2,0.4,2.8,1.1c3,3.1,4.6,7.4,4.6,12.1c0,8.2-7.3,12.5-16,12.5
		c-14.3,0-26.4-11.1-35.8-22c-10.1-11.8-22.1-20.4-42.1-20.4c-13.2,0-22.1,7.9-22.1,18.9c0,4.1,2.8,7.2,7.1,7.2s7-3.6,7-7.2
		c0-3.4,2.8-6.1,6.5-6.1c0.5,0,1,0,1.5,0.1c-2,1.9-3.1,4.5-3.1,7.5c0,2.4,1.6,4.2,4.1,4.2s4-2.1,4-4.2c0-1.8,1.4-3.6,3.6-3.6
		c1.1,0,2,0.4,2.8,1.1c3,3.1,4.6,7.4,4.6,12.1c0,8.2-7.3,12.5-16,12.5c-14.3,0-26.4-11.1-35.8-22c-10.1-11.8-22.1-20.4-42.1-20.4
		c-13.2,0-22.1,7.9-22.1,18.9c0,4.1,2.8,7.2,7.1,7.2s7-3.6,7-7.2c0-3.4,2.8-6.1,6.5-6.1c0.5,0,1,0,1.5,0.1c-2,1.9-3.1,4.5-3.1,7.5
		c0,2.4,1.6,4.2,4.1,4.2s4-2.1,4-4.2c0-1.8,1.4-3.6,3.6-3.6c1.1,0,2,0.4,2.8,1.1c3,3.1,4.6,7.4,4.6,12.1c0,8.2-7.3,12.5-16,12.5
		c-14.3,0-26.4-11.1-35.8-22c-10.1-11.8-22.1-20.4-42.1-20.4c-13.2,0-22.1,7.9-22.1,18.9c0,4.1,2.8,7.2,7.1,7.2s7-3.6,7-7.2
		c0-3.4,2.8-6.1,6.5-6.1c0.5,0,1,0,1.5,0.1c-2,1.9-3.1,4.5-3.1,7.5c0,2.4,1.6,4.2,4.1,4.2s4-2.1,4-4.2c0-1.8,1.4-3.6,3.6-3.6
		c1.1,0,2,0.4,2.8,1.1c3,3.1,4.6,7.4,4.6,12.1c0,8.2-7.3,12.5-16,12.5c-14.3,0-26.4-11.1-35.8-22c-10.1-11.8-22.1-20.4-42.1-20.4
		c-13.2,0-22.1,7.9-22.1,18.9c0,4.1,2.8,7.2,7.1,7.2s7-3.6,7-7.2c0-3.4,2.8-6.1,6.5-6.1c0.5,0,1,0,1.5,0.1c-2,1.9-3.1,4.5-3.1,7.5
		c0,2.4,1.6,4.2,4.1,4.2s4-2.1,4-4.2c0-1.8,1.4-3.6,3.6-3.6c1.1,0,2,0.4,2.8,1.1c3,3.1,4.6,7.4,4.6,12.1c0,8.2-7.3,12.5-16,12.5
		c-14.3,0-26.4-11.1-35.8-22c-10.1-11.8-22.1-20.4-42.1-20.4c-13.2,0-22.1,7.9-22.1,18.9c0,4.1,2.8,7.2,7.1,7.2s7-3.6,7-7.2
		c0-3.4,2.8-6.1,6.5-6.1c0.5,0,1,0,1.5,0.1c-2,1.9-3.1,4.5-3.1,7.5c0,2.4,1.6,4.2,4.1,4.2s4-2.1,4-4.2c0-1.8,1.4-3.6,3.6-3.6
		c1.1,0,2,0.4,2.8,1.1c3,3.1,4.6,7.4,4.6,12.1c0,8.2-7.3,12.5-16,12.5c-14.3,0-26.4-11.1-35.8-22c-10.1-11.8-22.1-20.4-42.1-20.4
		c-13.2,0-22.1,7.9-22.1,18.9c0,4.1,2.8,7.2,7.1,7.2s7-3.6,7-7.2c0-3.4,2.8-6.1,6.5-6.1c0.5,0,1,0,1.5,0.1c-2,1.9-3.1,4.5-3.1,7.5
		c0,2.4,1.6,4.2,4.1,4.2s4-2.1,4-4.2c0-1.8,1.4-3.6,3.6-3.6c1.1,0,2,0.4,2.8,1.1c3,3.1,4.6,7.4,4.6,12.1c0,8.2-7.3,12.5-16,12.5
		H247.4z"/>
	<path class="st16" d="M789.4,789c-14.3,0-26.4-11.1-35.8-22c-10.1-11.8-22.1-20.4-42.1-20.4c-13.2,0-22.1,7.9-22.1,18.9
		c0,4.1,2.8,7.2,7.1,7.2s7-3.6,7-7.2c0-3.4,2.8-6.1,6.5-6.1c0.5,0,1,0,1.5,0.1c-2,1.9-3.1,4.5-3.1,7.5c0,2.4,1.6,4.2,4.1,4.2
		s4-2.1,4-4.2c0-1.8,1.4-3.6,3.6-3.6c1.1,0,2,0.4,2.8,1.1c3,3.1,4.6,7.4,4.6,12.1c0,8.2-7.3,12.5-16,12.5c-14.3,0-26.4-11.1-35.8-22
		c-10.1-11.8-22.1-20.4-42.1-20.4c-13.2,0-22.1,7.9-22.1,18.9c0,4.1,2.8,7.2,7.1,7.2s7-3.6,7-7.2c0-3.4,2.8-6.1,6.5-6.1
		c0.5,0,1,0,1.5,0.1c-2,1.9-3.1,4.5-3.1,7.5c0,2.4,1.6,4.2,4.1,4.2s4-2.1,4-4.2c0-1.8,1.4-3.6,3.6-3.6c1.1,0,2,0.4,2.8,1.1
		c3,3.1,4.6,7.4,4.6,12.1c0,8.2-7.3,12.5-16,12.5c-14.3,0-26.4-11.1-35.8-22c-10.1-11.8-22.1-20.4-42.1-20.4
		c-13.2,0-22.1,7.9-22.1,18.9c0,4.1,2.8,7.2,7.1,7.2s7-3.6,7-7.2c0-3.4,2.8-6.1,6.5-6.1c0.5,0,1,0,1.5,0.1c-2,1.9-3.1,4.5-3.1,7.5
		c0,2.4,1.6,4.2,4.1,4.2s4-2.1,4-4.2c0-1.8,1.4-3.6,3.6-3.6c1.1,0,2,0.4,2.8,1.1c3,3.1,4.6,7.4,4.6,12.1c0,8.2-7.3,12.5-16,12.5
		c-14.3,0-26.4-11.1-35.8-22c-10.1-11.8-22.1-20.4-42.1-20.4c-13.2,0-22.1,7.9-22.1,18.9c0,4.1,2.8,7.2,7.1,7.2s7-3.6,7-7.2
		c0-3.4,2.8-6.1,6.5-6.1c0.5,0,1,0,1.5,0.1c-2,1.9-3.1,4.5-3.1,7.5c0,2.4,1.6,4.2,4.1,4.2s4-2.1,4-4.2c0-1.8,1.4-3.6,3.6-3.6
		c1.1,0,2,0.4,2.8,1.1c3,3.1,4.6,7.4,4.6,12.1c0,8.2-7.3,12.5-16,12.5c-14.3,0-26.4-11.1-35.8-22c-10.1-11.8-22.1-20.4-42.1-20.4
		c-13.2,0-22.1,7.9-22.1,18.9c0,4.1,2.8,7.2,7.1,7.2s7-3.6,7-7.2c0-3.4,2.8-6.1,6.5-6.1c0.5,0,1,0,1.5,0.1c-2,1.9-3.1,4.5-3.1,7.5
		c0,2.4,1.6,4.2,4.1,4.2s4-2.1,4-4.2c0-1.8,1.4-3.6,3.6-3.6c1.1,0,2,0.4,2.8,1.1c3,3.1,4.6,7.4,4.6,12.1c0,8.2-7.3,12.5-16,12.5
		c-14.3,0-26.4-11.1-35.8-22c-10.1-11.8-22.1-20.4-42.1-20.4c-13.2,0-22.1,7.9-22.1,18.9c0,4.1,2.8,7.2,7.1,7.2s7-3.6,7-7.2
		c0-3.4,2.8-6.1,6.5-6.1c0.5,0,1,0,1.5,0.1c-2,1.9-3.1,4.5-3.1,7.5c0,2.4,1.6,4.2,4.1,4.2s4-2.1,4-4.2c0-1.8,1.4-3.6,3.6-3.6
		c1.1,0,2,0.4,2.8,1.1c3,3.1,4.6,7.4,4.6,12.1c0,8.2-7.3,12.5-16,12.5c-5.7,0-9.5,3.8-9.5,9.4v2.5c4.7,3.3,8.8,7.3,12.7,11.7
		c9.4,10.9,21.5,22,35.8,22c8.7,0,16-4.4,16-12.5c0-4.7-1.6-8.9-4.6-12.1c-0.8-0.7-1.7-1.1-2.8-1.1c-2.2,0-3.6,1.8-3.6,3.6
		c0,2.1-1.5,4.2-4,4.2s-4.1-1.8-4.1-4.2c0-3,1.1-5.6,3.1-7.5c-0.5,0-1-0.1-1.5-0.1c-3.8,0-6.5,2.8-6.5,6.1c0,3.6-2.6,7.2-7,7.2
		s-7.1-3.1-7.1-7.2c0-11,8.9-18.9,22.1-18.9c20,0,32,8.6,42.1,20.4c9.4,10.9,21.5,22,35.8,22c8.7,0,16-4.4,16-12.5
		c0-4.7-1.6-8.9-4.6-12.1c-0.8-0.7-1.7-1.1-2.8-1.1c-2.2,0-3.6,1.8-3.6,3.6c0,2.1-1.5,4.2-4,4.2s-4.1-1.8-4.1-4.2
		c0-3,1.1-5.6,3.1-7.5c-0.5,0-1-0.1-1.5-0.1c-3.8,0-6.5,2.8-6.5,6.1c0,3.6-2.6,7.2-7,7.2s-7.1-3.1-7.1-7.2c0-11,8.9-18.9,22.1-18.9
		c20,0,32,8.6,42.1,20.4c9.4,10.9,21.5,22,35.8,22c8.7,0,16-4.4,16-12.5c0-4.7-1.6-8.9-4.6-12.1c-0.8-0.7-1.7-1.1-2.8-1.1
		c-2.2,0-3.6,1.8-3.6,3.6c0,2.1-1.5,4.2-4,4.2s-4.1-1.8-4.1-4.2c0-3,1.1-5.6,3.1-7.5c-0.5,0-1-0.1-1.5-0.1c-3.8,0-6.5,2.8-6.5,6.1
		c0,3.6-2.6,7.2-7,7.2s-7.1-3.1-7.1-7.2c0-11,8.9-18.9,22.1-18.9c20,0,32,8.6,42.1,20.4c9.4,10.9,21.5,22,35.8,22
		c8.7,0,16-4.4,16-12.5c0-4.7-1.6-8.9-4.6-12.1c-0.8-0.7-1.7-1.1-2.8-1.1c-2.2,0-3.6,1.8-3.6,3.6c0,2.1-1.5,4.2-4,4.2
		s-4.1-1.8-4.1-4.2c0-3,1.1-5.6,3.1-7.5c-0.5,0-1-0.1-1.5-0.1c-3.8,0-6.5,2.8-6.5,6.1c0,3.6-2.6,7.2-7,7.2s-7.1-3.1-7.1-7.2
		c0-11,8.9-18.9,22.1-18.9c20,0,32,8.6,42.1,20.4c9.4,10.9,21.5,22,35.8,22c8.7,0,16-4.4,16-12.5c0-4.7-1.6-8.9-4.6-12.1
		c-0.8-0.7-1.7-1.1-2.8-1.1c-2.2,0-3.6,1.8-3.6,3.6c0,2.1-1.5,4.2-4,4.2s-4.1-1.8-4.1-4.2c0-3,1.1-5.6,3.1-7.5c-0.5,0-1-0.1-1.5-0.1
		c-3.8,0-6.5,2.8-6.5,6.1c0,3.6-2.6,7.2-7,7.2s-7.1-3.1-7.1-7.2c0-11,8.9-18.9,22.1-18.9c20,0,32,8.6,42.1,20.4
		c9.4,10.9,21.5,22,35.8,22c8.7,0,16-4.4,16-12.5c0-4.7-1.6-8.9-4.6-12.1c-0.8-0.7-1.7-1.1-2.8-1.1c-2.2,0-3.6,1.8-3.6,3.6
		c0,2.1-1.5,4.2-4,4.2s-4.1-1.8-4.1-4.2c0-3,1.1-5.6,3.1-7.5c-0.5,0-1-0.1-1.5-0.1c-3.8,0-6.5,2.8-6.5,6.1c0,3.6-2.6,7.2-7,7.2
		s-7.1-3.1-7.1-7.2c0-11,8.9-18.9,22.1-18.9c20,0,32,8.6,42.1,20.4c2,2.3,4.1,4.6,6.3,6.9v-21.1C798.9,792.8,795.1,789,789.4,789z"
		/>
	<g>
		<path class="st17" d="M697.7,333.4c0-3.8,2.6-6.7,6.7-6.7c4.5,0,7.2,3.1,7.2,7.3c0,7-5.6,12.2-12.5,12.2
			c-8.7,0-15.4-6.1-15.4-14.2c0-10.2,6.8-18.8,18.6-18.8c14.7,0,22.3,10.2,32,23c9.9,13.2,21.7,19.7,39.9,19.7"/>
		<path class="st17" d="M620.6,333.4c0-3.8,2.6-6.7,6.7-6.7c4.5,0,7.2,3.1,7.2,7.3c0,7-5.6,12.2-12.5,12.2
			c-8.7,0-15.4-6.1-15.4-14.2c0-10.2,6.8-18.8,18.6-18.8c14.7,0,22.3,10.2,32,23c10.2,13.4,22.4,19.7,39.9,19.7
			c13.2,0,23.9-8.4,23.9-21.2"/>
		<path class="st17" d="M543.5,333.4c0-3.8,2.6-6.7,6.7-6.7c4.5,0,7.2,3.1,7.2,7.3c0,7-5.6,12.2-12.5,12.2
			c-8.7,0-15.4-6.1-15.4-14.2c0-10.2,6.8-18.8,18.6-18.8c14.7,0,22.3,10.2,32,23c9.9,13.2,21.7,19.7,39.9,19.7
			c13.2,0,23.9-8.4,23.9-21.2"/>
		<path class="st17" d="M466.5,333.4c0-3.8,2.6-6.7,6.7-6.7c4.5,0,7.2,3.1,7.2,7.3c0,7-5.6,12.2-12.5,12.2
			c-8.7,0-15.4-6.1-15.4-14.2c0-10.2,6.8-18.8,18.6-18.8c14.7,0,22.3,10.2,32,23c9.9,13.2,21.7,19.7,39.9,19.7
			c13.2,0,23.9-8.4,23.9-21.2"/>
		<path class="st17" d="M389.4,333.4c0-3.8,2.6-6.7,6.7-6.7c4.5,0,7.2,3.1,7.2,7.3c0,7-5.6,12.2-12.5,12.2
			c-8.7,0-15.4-6.1-15.4-14.2c0-10.2,6.8-18.8,18.6-18.8c14.7,0,22.3,10.2,32,23c9.9,13.2,21.7,19.7,39.9,19.7
			c13.2,0,23.9-8.4,23.9-21.2"/>
		<path class="st17" d="M312.3,333.4c0-3.8,2.6-6.7,6.7-6.7c4.5,0,7.2,3.1,7.2,7.3c0,7-5.6,12.2-12.5,12.2
			c-8.7,0-15.4-6.1-15.4-14.2c0-10.2,6.8-18.8,18.6-18.8c14.7,0,22.3,10.2,32,23c9.9,13.2,21.7,19.7,39.9,19.7
			c13.2,0,23.9-8.4,23.9-21.2"/>
		<path class="st17" d="M311.7,355.9c13.2,0,23.9-8.4,23.9-21.2"/>
	</g>
	<g>
		<path class="st18" d="M697.7,244.9c0-3.8,2.6-6.7,6.7-6.7c4.5,0,7.2,3.1,7.2,7.3c0,7-5.6,12.2-12.5,12.2
			c-8.7,0-15.4-6.1-15.4-14.2c0-10.2,6.8-18.8,18.6-18.8c14.7,0,22.3,10.2,32,23c9.9,13.2,21.7,19.7,39.9,19.7"/>
		<path class="st18" d="M620.6,244.9c0-3.8,2.6-6.7,6.7-6.7c4.5,0,7.2,3.1,7.2,7.3c0,7-5.6,12.2-12.5,12.2
			c-8.7,0-15.4-6.1-15.4-14.2c0-10.2,6.8-18.8,18.6-18.8c14.7,0,22.3,10.2,32,23c10.2,13.4,22.4,19.7,39.9,19.7
			c13.2,0,23.9-8.4,23.9-21.2"/>
		<path class="st18" d="M543.5,244.9c0-3.8,2.6-6.7,6.7-6.7c4.5,0,7.2,3.1,7.2,7.3c0,7-5.6,12.2-12.5,12.2
			c-8.7,0-15.4-6.1-15.4-14.2c0-10.2,6.8-18.8,18.6-18.8c14.7,0,22.3,10.2,32,23c9.9,13.2,21.7,19.7,39.9,19.7
			c13.2,0,23.9-8.4,23.9-21.2"/>
		<path class="st18" d="M466.5,244.9c0-3.8,2.6-6.7,6.7-6.7c4.5,0,7.2,3.1,7.2,7.3c0,7-5.6,12.2-12.5,12.2
			c-8.7,0-15.4-6.1-15.4-14.2c0-10.2,6.8-18.8,18.6-18.8c14.7,0,22.3,10.2,32,23c9.9,13.2,21.7,19.7,39.9,19.7
			c13.2,0,23.9-8.4,23.9-21.2"/>
		<path class="st18" d="M389.4,244.9c0-3.8,2.6-6.7,6.7-6.7c4.5,0,7.2,3.1,7.2,7.3c0,7-5.6,12.2-12.5,12.2
			c-8.7,0-15.4-6.1-15.4-14.2c0-10.2,6.8-18.8,18.6-18.8c14.7,0,22.3,10.2,32,23c9.9,13.2,21.7,19.7,39.9,19.7
			c13.2,0,23.9-8.4,23.9-21.2"/>
		<path class="st18" d="M312.3,244.9c0-3.8,2.6-6.7,6.7-6.7c4.5,0,7.2,3.1,7.2,7.3c0,7-5.6,12.2-12.5,12.2
			c-8.7,0-15.4-6.1-15.4-14.2c0-10.2,6.8-18.8,18.6-18.8c14.7,0,22.3,10.2,32,23c9.9,13.2,21.7,19.7,39.9,19.7
			c13.2,0,23.9-8.4,23.9-21.2"/>
		<path class="st18" d="M311.7,267.4c13.2,0,23.9-8.4,23.9-21.2"/>
	</g>
	<g>
		<g>
			<path class="st19" d="M739.2,289.2c0-3.8,2.6-6.7,6.7-6.7c4.5,0,7.2,3.1,7.2,7.3c0,7-5.6,12.2-12.5,12.2
				c-8.7,0-15.4-6.1-15.4-14.2c0-10.2,6.8-18.8,18.6-18.8c14.7,0,22.3,10.2,32,23c9.9,13.2,21.7,19.7,39.9,19.7"/>
			<path class="st19" d="M662.1,289.2c0-3.8,2.6-6.7,6.7-6.7c4.5,0,7.2,3.1,7.2,7.3c0,7-5.6,12.2-12.5,12.2
				c-8.7,0-15.4-6.1-15.4-14.2c0-10.2,6.8-18.8,18.6-18.8c14.7,0,22.3,10.2,32,23c10.2,13.4,22.4,19.7,39.9,19.7
				c13.2,0,23.9-8.4,23.9-21.2"/>
			<path class="st19" d="M585,289.2c0-3.8,2.6-6.7,6.7-6.7c4.5,0,7.2,3.1,7.2,7.3c0,7-5.6,12.2-12.5,12.2c-8.7,0-15.4-6.1-15.4-14.2
				c0-10.2,6.8-18.8,18.6-18.8c14.7,0,22.3,10.2,32,23c9.9,13.2,21.7,19.7,39.9,19.7c13.2,0,23.9-8.4,23.9-21.2"/>
			<path class="st19" d="M508,289.2c0-3.8,2.6-6.7,6.7-6.7c4.5,0,7.2,3.1,7.2,7.3c0,7-5.6,12.2-12.5,12.2c-8.7,0-15.4-6.1-15.4-14.2
				c0-10.2,6.8-18.8,18.6-18.8c14.7,0,22.3,10.2,32,23c9.9,13.2,21.7,19.7,39.9,19.7c13.2,0,23.9-8.4,23.9-21.2"/>
			<path class="st19" d="M430.9,289.2c0-3.8,2.6-6.7,6.7-6.7c4.5,0,7.2,3.1,7.2,7.3c0,7-5.6,12.2-12.5,12.2
				c-8.7,0-15.4-6.1-15.4-14.2c0-10.2,6.8-18.8,18.6-18.8c14.7,0,22.3,10.2,32,23c9.9,13.2,21.7,19.7,39.9,19.7
				c13.2,0,23.9-8.4,23.9-21.2"/>
			<path class="st19" d="M353.8,289.2c0-3.8,2.6-6.7,6.7-6.7c4.5,0,7.2,3.1,7.2,7.3c0,7-5.6,12.2-12.5,12.2
				c-8.7,0-15.4-6.1-15.4-14.2c0-10.2,6.8-18.8,18.6-18.8c14.7,0,22.3,10.2,32,23c9.9,13.2,21.7,19.7,39.9,19.7
				c13.2,0,23.9-8.4,23.9-21.2"/>
			<path class="st19" d="M353.2,311.6c13.2,0,23.9-8.4,23.9-21.2"/>
		</g>
		<g>
			<path class="st19" d="M276.8,289.2c0-3.8,2.6-6.7,6.7-6.7c4.5,0,7.2,3.1,7.2,7.3c0,7-5.6,12.2-12.5,12.2
				c-8.7,0-15.4-6.1-15.4-14.2c0-10.2,6.8-18.8,18.6-18.8c14.7,0,22.3,10.2,32,23c9.9,13.2,21.7,19.7,39.9,19.7"/>
			<path class="st19" d="M276.1,311.6c13.2,0,23.9-8.4,23.9-21.2"/>
		</g>
	</g>
</g>
</svg>
