<?xml version="1.0" encoding="iso-8859-1"?>
<!-- Generator: Adobe Illustrator 16.0.4, SVG Export Plug-In . SVG Version: 6.00 Build 0)  -->
<!DOCTYPE svg PUBLIC "-//W3C//DTD SVG 1.1//EN" "http://www.w3.org/Graphics/SVG/1.1/DTD/svg11.dtd">



<svg version="1.1" id="Layer_1" xmlns="http://www.w3.org/2000/svg" xmlns:xlink="http://www.w3.org/1999/xlink" x="0px" y="0px"
	 width="40008.667px" height="20022.667px" viewBox="0 0 808.667 422.667" style="enable-background:new 0 0 808.667 422.667;"
	 xml:space="preserve">

 <circle cx="" cy="" r="5" fill="red">
	<animateMotion dur="3s" repeatCount="infinite">
    	<mpath xlink:href="#path1"/>
    </animateMotion>
   </circle>
   <circle cx="" cy="" r="5" fill="red">
	<animateMotion dur="3s" repeatCount="infinite">
    	<mpath xlink:href="#path2"/>
    </animateMotion>
   </circle>
      <circle cx="" cy="" r="5" fill="red">
	<animateMotion dur="3s" repeatCount="infinite">
    	<mpath xlink:href="#path3"/>
    </animateMotion>
   </circle>
<path style="fill:none;stroke:#898989;stroke-width:1.525;stroke-miterlimit:10;" d="M178.624,409.539h18.719
	c0,0,22.303,2.287,22.303-34.311c0-14.055,0-44.818,0-77.385c0-52.24,0-109.119,0-109.119s-3.459-29.993,21.158-29.984
	c26.722,0.008,8.68,0,8.68,0" id="path1"/>
<path style="fill:none;stroke:#898989;stroke-width:1.525;stroke-miterlimit:10;" d="M73.049,129.408c0,0,12.802,0,33.841,0
	c21.037,0,20.249,20.249,20.249,20.249v181.875" id="path2"/>
<path style="fill:none;stroke:#898989;stroke-width:1.525;stroke-miterlimit:10;" d="M793.448,371.775c0,0-12.803,0-33.841,0
	s-20.25-20.251-20.25-20.251V233.339" id="path3"/>
<path style="fill:none;stroke:#898989;stroke-width:1.525;stroke-miterlimit:10;" d="M450.688,14.466c0,0-12.801,0-33.84,0
	c-21.038,0-20.25,20.25-20.25,20.25v85.323"/>
<path style="fill:none;stroke:#898989;stroke-width:1.525;stroke-miterlimit:10;" d="M725.354,230.916c0,0,0,12.802,0,33.841
	c0,21.037-20.25,20.25-20.25,20.25h-60.504"/>
<path style="fill:none;stroke:#898989;stroke-width:1.525;stroke-miterlimit:10;" d="M113.446,331.947c0,0,0-12.802,0-33.841
	c0-21.038-20.25-20.249-20.25-20.249H7.873"/>
<line style="fill:none;stroke:#898989;stroke-width:1.525;stroke-miterlimit:10;" x1="431.368" y1="156.877" x2="682.409" y2="156.877"/>
</svg>
